<?xml version="1.0" encoding="UTF-8" standalone="no"?><!DOCTYPE svg PUBLIC "-//W3C//DTD SVG 1.1//EN" "http://www.w3.org/Graphics/SVG/1.1/DTD/svg11.dtd"><svg width="100%" height="100%" viewBox="0 0 2000 2000" version="1.1" xmlns="http://www.w3.org/2000/svg" xmlns:xlink="http://www.w3.org/1999/xlink" xml:space="preserve" xmlns:serif="http://www.serif.com/" style="fill-rule:evenodd;clip-rule:evenodd;stroke-linejoin:round;stroke-miterlimit:2;"><g id="Cartoon-Forest-Background-1"><g id="Background"><rect x="0" y="0" width="2000" height="1199.44" style="fill:#e4ecbb;"/><path d="M947.449,0C957.139,13.597 954.408,35.729 936.981,44.794C953.65,60.938 947.394,96.875 921.875,101.563C959.894,108.331 951.044,150 929.687,164.063C951.562,173.956 946.35,196.575 915.625,206.25C944.981,209.337 948.45,253.644 915.625,260.938C930.731,289.063 916.669,326.563 875,321.875C871.35,341.931 868.75,366.662 839.062,348.438C845.312,379.162 841.669,400 806.25,385.938C821.356,442.188 777.081,471.35 746.875,418.75C745.313,482.288 713.544,470.313 701.563,432.813C675.519,457.813 662.5,402.831 662.5,402.831L662.5,733.562L612.5,733.562L612.5,402.831C612.5,402.831 589.063,456.769 568.306,413.138C561.981,452.6 531.769,438.538 531.181,423.45C492.188,447.913 487.563,402.831 487.563,402.831L487.563,0L947.449,0Z" style="fill:#d9e6ab;"/><path d="M958.532,19.913C948.842,33.51 951.572,55.642 969,64.707C952.331,80.851 958.587,116.788 984.106,121.476C946.087,128.245 954.937,169.913 976.293,183.976C954.418,193.87 959.631,216.488 990.356,226.163C961,229.251 957.531,273.557 990.356,280.851C975.25,308.976 989.312,346.476 1030.98,341.788C1034.63,361.845 1037.23,386.576 1066.92,368.351C1060.67,399.076 1064.31,419.913 1099.73,405.851C1084.62,462.101 1128.9,491.263 1159.11,438.663C1160.67,502.201 1192.44,490.226 1204.42,452.726C1230.46,477.726 1243.48,422.744 1243.48,422.744L1243.48,753.476L1293.48,753.476L1293.48,422.744C1293.48,422.744 1316.92,476.682 1337.67,433.051C1344,472.513 1374.21,458.451 1374.8,443.363C1413.79,467.826 1418.42,422.744 1418.42,422.744L1418.42,19.913L958.532,19.913Z" style="fill:#d9e6ab;"/><path d="M441.333,572.656C459.031,552.887 491.794,573.438 487.563,594.531C519.631,579.194 534.375,594.144 529.456,620.619C543.969,592.969 568.306,604.294 572.656,620.619C594.531,598.825 622.656,617.188 624.219,641.406C641.794,616.794 658.988,626.956 662.5,645.313C677.738,620.619 699.613,634.375 703.125,660.487C728.906,622.262 743.363,637.894 749.219,671.069C768.363,631.644 794.144,637.113 803.906,660.487C816.019,634.375 844.925,643.363 851.563,674.219C864.063,646.488 876.956,647.656 894.531,652.85C886.331,620.7 896.875,597.656 933.594,603.125C925.394,575.781 939.844,561.719 959.381,572.656C957.031,540.238 972.269,531.25 1000,538.281C1018.36,513.281 1052.74,525.394 1051.56,546.875C1076.17,525.781 1100.78,548.044 1099.22,579.194C1117.19,542.188 1157.03,546.875 1157.81,582.813C1171.49,553.125 1214.06,557.419 1220.31,585.156C1242.58,552.731 1284.38,574.606 1289.84,606.25C1312.89,581.637 1337.5,598.044 1339.06,616.406C1364.84,587.113 1388.28,622.656 1388.28,622.656L1388.28,321.875L1425,321.875L1425,629.688C1425,629.688 1470.7,589.063 1501.95,643.363C1517.97,608.594 1556.64,611.325 1568.75,652.85C1590.62,602.344 1630.86,621.481 1632.81,652.85C1655.47,629.3 1672.66,635.938 1676.56,671.069C1687.5,623.831 1735.94,635.938 1735.94,635.938L1735.94,1220.09L0,1220.09L0,504.816L365.682,505.597C365.682,505.597 458.385,518.088 441.333,572.656Z" style="fill:#bdd78e;fill-rule:nonzero;"/><path d="M1078.62,0C1103.76,16.693 1074.46,25.283 1068.06,23.294C1079.41,37.731 1074.33,47.581 1040.97,40.775C1074.06,57.175 1144.36,136.45 1076.11,118.094C1124.61,156.462 1136.45,197.756 1092.52,182.531C1129.42,216.212 1140.84,272.869 1092.52,221.194C1131.17,276.838 1134.69,346.25 1083.14,272.869C1099.55,485.95 1033.64,414.781 1030.42,290.306C1005.53,355.913 990.581,329.55 1008.17,278.594C980.05,300.556 974.775,278.594 1008.17,231.738C964.237,262.619 979.169,208.306 1002.89,182.531C962.481,210.062 965.994,169.644 1002.89,130.394C982.938,142.731 973.7,143.425 971.887,136.362C978.625,612.05 1014.19,908.638 1014.19,908.638L954.694,908.638C945.662,770.656 935.538,321.694 930.619,83.488C925.706,87.431 916.663,84.687 902.612,71.375C923.444,108.875 928.131,131.531 890.631,108.356C923.444,143.25 926.569,179.188 890.631,154.712C911.725,177.625 925.006,225.925 885.944,198.462C915.631,240.125 910.944,259.656 885.944,240.125C901.581,285.438 888.288,308.875 866.156,250.544C863.288,361.219 804.694,424.5 819.281,235.037C773.444,300.281 776.569,238.563 810.944,189.087C767.975,235.037 778.131,184.656 810.944,154.712C784.25,163.963 780.737,149.731 794.938,128.913C790.481,129.625 785.169,124.813 779.481,111.231C782.431,162.306 768.069,176.344 757.3,146.5C746.419,193.181 722.687,205.944 735.006,144.781C673.663,236.95 590.369,259.319 703.581,106.7C630.044,137.531 665.55,86.95 720.988,63.369C660.15,79.387 695.569,42.15 739.288,34.269C707.762,26.965 718.348,9.762 750.63,0L1078.62,0Z" style="fill:#aac57a;"/><path d="M2000,770.07L1876.57,770.07L1876.57,629.002C1876.57,629.002 1889.51,583.614 1928.05,610.958C1923.88,565.958 1950.97,573.789 1959.3,589.864C1956.24,553.136 1988.4,552.38 2000,565.577L2000,770.07Z" style="fill:#bdd78e;fill-rule:nonzero;"/></g><g id="Bush-Middle" serif:id="Bush Middle"><g id="Bush-Rear" serif:id="Bush Rear"><path d="M-0,708.401C17.042,697.571 30.902,709.407 30.292,735.274C47.189,712.362 70.049,739.193 71.177,774.2C80.183,750.65 108.118,744.794 122.133,770.981C157.388,744.794 180.588,758.008 180.588,794.37C207.166,758.008 233.637,777.734 227.689,828.775C246.828,804.287 268.225,811.469 263.719,857.294C279.487,827.094 313.893,840.637 301.502,878.125C331.882,867.371 325.577,920.962 325.577,920.962L325.577,1000L-0,1000L-0,708.401Z" style="fill:url(#_Linear1);fill-rule:nonzero;"/><path d="M1172.15,751.562C1160.43,737.5 1124.43,737.5 1127.78,775C1118.86,758.925 1089.84,751.094 1094.3,796.094C1053.01,768.75 1039.14,814.137 1039.14,814.137L1039.14,955.206L1638.92,955.206L1638.92,774.456C1638.92,774.456 1632.94,746.825 1613.26,758.931C1613.26,744.481 1595.49,730.636 1587.95,748.604C1587.53,732.198 1551.32,724.658 1551.32,762.5C1537.93,732.031 1499.43,748.825 1507.8,782.85C1488.96,765.231 1457.58,774.613 1455.9,802.344C1445.02,783.981 1419.49,785.156 1409.03,807.812C1400.24,787.894 1380.57,785.544 1362.15,803.125C1365.92,783.206 1344.58,771.094 1320.3,789.062C1322.39,753.906 1289.33,735.937 1261.71,769.531C1263.8,744.925 1226.55,727.344 1210.65,755.469C1210.14,747.338 1200.08,739.287 1189.8,739.287C1183.15,739.287 1176.42,742.663 1172.15,751.562Z" style="fill:url(#_Linear2);fill-rule:nonzero;"/><path d="M2000,914.021L1876.57,914.021L1876.57,772.953C1876.57,772.953 1886.63,727.565 1925.17,754.909C1921.01,709.909 1950.97,717.74 1959.3,733.815C1956.91,694.19 1990.85,694.19 2000,709.528L2000,914.021Z" style="fill:url(#_Linear3);fill-rule:nonzero;"/><path d="M612.959,713.406C594.34,683.988 545.489,683.988 541.084,742.712C516.398,718.481 501.758,742.712 506.709,777.731C498.377,754.181 476.434,758.282 478.154,786.244C472.941,770.632 449.415,761.365 449.415,797.919C416.936,754.607 383.331,770.981 383.331,819.944C365.624,795.456 334.137,812.128 338.306,857.953C323.531,830.996 298.377,846.199 301.502,878.125C266.215,876.05 272.402,918.881 272.402,918.881L272.402,997.919L848.453,997.919L848.453,764.453C848.453,764.453 847.864,714.859 792.121,724.106C779.496,685.094 736.527,689.844 711.915,724.106C713.871,700 689.259,682.031 674.415,705.206C668.615,691.619 656.734,685.087 644.896,685.094C630.427,685.094 616.034,694.856 612.959,713.406Z" style="fill:url(#_Linear4);fill-rule:nonzero;"/></g><g><path d="M815.625,789.062C807.425,770.312 769.925,763.281 756.25,789.062C745.7,748.825 686.331,747.656 676.563,802.206C648.044,785.156 618.75,793.356 621.875,826.694C602.344,813.669 578.906,824.613 592.644,859.375C563.281,848.437 526.956,868.513 543.969,918.75C523.044,900.781 496.094,913.281 495.294,954.687C484.375,933.981 448.831,939.844 438.894,971.875C425.394,951.175 401.162,943.363 379.606,971.875C375.388,939.45 344.144,934.769 325.575,957.812C328.519,909.769 280.081,908.206 256.25,939.062C252.737,890.625 225.781,876.169 203.175,903.125C193.75,872.269 160.55,864.062 140.694,903.125C129.294,868.513 105.331,874.613 94.912,903.125C89.063,878.125 62.112,868.513 54.044,903.125C49.606,877.344 30.856,877.731 18.75,903.125C14.569,888.875 7.213,884.244 0,883.719L0,1493.75L6.25,1493.75L6.25,1464.58C6.25,1464.58 352.087,1372.92 1000,1372.92C1647.91,1372.92 1999.38,1464.58 1999.38,1464.58L1999.38,1493.75L2000,1493.75L2000,818.112C1992.38,801.85 1969.23,799.619 1945.8,817.187C1949.15,793.207 1926.44,783.153 1914.7,807.873C1908.07,758.931 1784.46,791.039 1741.67,789.062C1731.25,755.856 1698.04,754.688 1687.5,789.062C1671.88,768.363 1642.19,769.919 1629.69,806.25C1619.14,775.394 1565.62,768.75 1556.25,812.5C1548.83,791.794 1519.53,789.844 1512.5,825C1496.49,805.856 1462.5,812.106 1457.81,851.562C1425.39,822.269 1373.74,827.731 1373.74,893.75C1356.25,871.094 1327.34,874.219 1328.12,920.312C1314.06,893.75 1272.66,903.125 1267.19,932.812C1267.58,906.25 1234.77,901.175 1215.62,920.312C1223.05,885.55 1195.31,864.062 1165.62,890.625C1171.88,857.425 1129.69,831.25 1101.56,857.812C1105.08,837.894 1078.91,823.831 1056.25,845.312C1060.55,813.281 1024.22,799.606 1000,828.125C1010.94,784.375 954.687,769.919 931.25,817.187C933.206,793.75 917.575,786.325 896.875,800C896.663,772.306 876.694,758.931 856.431,758.931C838.694,758.931 820.731,769.188 815.625,789.062Z" style="fill:url(#_Linear5);fill-rule:nonzero;"/><path d="M1577.99,871.555C1605.4,862.928 1599.5,827.57 1599.5,827.57C1562.37,844.203 1577.99,871.555 1577.99,871.555Z" style="fill:#8ad254;fill-rule:nonzero;"/><path d="M1949.1,909.485C1976.52,900.857 1970.61,865.5 1970.61,865.5C1933.49,882.132 1949.1,909.485 1949.1,909.485Z" style="fill:#8ad254;fill-rule:nonzero;"/><path d="M1976.54,1099.08C1980.37,1070.59 1945.85,1060.92 1945.85,1060.92C1945.15,1101.6 1976.54,1099.08 1976.54,1099.08Z" style="fill:#8ad254;fill-rule:nonzero;"/><path d="M840.449,879.233C867.864,870.605 861.959,835.248 861.959,835.248C824.834,851.88 840.449,879.233 840.449,879.233Z" style="fill:#8ad254;fill-rule:nonzero;"/><path d="M1037.7,988.09C1043.93,960.035 1010.36,947.469 1010.36,947.469C1006.2,987.935 1037.7,988.09 1037.7,988.09Z" style="fill:#78bf42;fill-rule:nonzero;"/><path d="M680.332,1012.74C675.333,984.433 639.509,985.703 639.509,985.703C651.185,1024.67 680.332,1012.74 680.332,1012.74Z" style="fill:#78bf42;fill-rule:nonzero;"/><path d="M265.789,1049.54C294.447,1047.38 296.746,1011.6 296.746,1011.6C256.811,1019.35 265.789,1049.54 265.789,1049.54Z" style="fill:#78bf42;fill-rule:nonzero;"/><path d="M1706.15,882.776C1719.55,846.762 1740.16,863.485 1721.36,893.546C1758.94,887.515 1758.83,920.233 1716.25,909.173C1725.37,950.408 1700.59,949.64 1701.02,906.287C1663.13,919.32 1663.57,896.649 1696.42,892.622C1663.69,867.59 1686.87,855.222 1706.15,882.776Z" style="fill:url(#_Linear6);fill-rule:nonzero;"/><path d="M1107.69,943.116C1095.51,916.079 1115.9,914.077 1121.88,940.781C1139.24,917.081 1156.93,935.105 1127.55,952.128C1154.92,969.82 1140.91,982.837 1117.62,958.805C1103.89,986.506 1091.84,973.825 1107.69,953.798C1076.15,957.804 1082.16,938.441 1107.69,943.116Z" style="fill:url(#_Linear7);fill-rule:nonzero;"/><path d="M983.566,1026.01C997.179,999.662 1011.42,1014.39 994.214,1035.67C1023.57,1034.54 1020.44,1059.61 988.849,1047.17C991.998,1079.61 973.087,1076.71 977.445,1043.54C947.211,1050 949.657,1032.67 975.197,1032.64C952.457,1010.42 971.363,1003.1 983.566,1026.01Z" style="fill:url(#_Linear8);fill-rule:nonzero;"/><path d="M709.694,897.834C731.914,880.046 738.648,898.52 715.262,910.466C741.442,920.933 728.914,941.69 706.068,918.453C696.167,948.128 680.715,938.21 697.487,910.818C668.451,904.684 677.361,890.446 699.763,900.387C688.501,872.03 707.934,872.989 709.694,897.834Z" style="fill:url(#_Linear9);fill-rule:nonzero;"/><path d="M161.454,994.855C173.602,967.89 153.266,965.892 147.304,992.524C129.993,968.886 112.353,986.865 141.64,1003.84C114.35,1021.48 128.329,1034.47 151.552,1010.5C165.242,1038.13 177.258,1025.48 161.454,1005.51C192.911,1009.5 186.918,990.193 161.454,994.855Z" style="fill:url(#_Linear10);fill-rule:nonzero;"/></g></g><g id="Tree-Left" serif:id="Tree Left"><g><path d="M509.544,346.125C509.544,346.125 649.928,777.509 84.811,670.002C84.534,669.949 84.258,669.894 83.982,669.837C77.772,668.545 0,652.366 0,652.366L0,680.112L84.375,697.994C84.375,697.994 650,826.694 526.275,340.331L509.544,346.125Z" style="fill:url(#_Linear11);fill-rule:nonzero;"/><path d="M531.431,493.549C565.306,516.081 580.106,488.274 580.106,488.274C573.962,483.068 567.443,481.193 561.231,481.193C545.293,481.193 531.431,493.549 531.431,493.549Z" style="fill:url(#_Linear12);fill-rule:nonzero;"/><path d="M531.431,416.921C565.3,439.446 580.1,411.639 580.1,411.639C573.956,406.433 567.437,404.571 561.231,404.571C545.287,404.571 531.431,416.921 531.431,416.921Z" style="fill:url(#_Linear13);fill-rule:nonzero;"/><path d="M482.962,438.662C510.2,468.869 531.431,445.6 531.431,445.6C524.518,435.869 514.987,433.025 506.2,433.025C493.843,433.025 482.962,438.662 482.962,438.662Z" style="fill:url(#_Linear14);fill-rule:nonzero;"/><path d="M478.696,490.486C499.289,525.561 524.771,507.043 524.771,507.043C518.121,491.937 503.902,488.724 493.008,488.724C484.94,488.724 478.696,490.486 478.696,490.486Z" style="fill:url(#_Linear15);fill-rule:nonzero;"/><path d="M494.861,592.347C497.336,563.722 462.405,555.685 462.405,555.685C463.611,596.347 494.861,592.347 494.861,592.347Z" style="fill:url(#_Linear16);fill-rule:nonzero;"/><path d="M332.253,685.511C348.771,661.998 322.59,637.517 322.59,637.517C303.228,673.292 332.253,685.511 332.253,685.511Z" style="fill:url(#_Linear17);fill-rule:nonzero;"/><path d="M71.264,671.987C98.715,663.504 93.004,628.122 93.004,628.122C55.793,644.557 71.264,671.987 71.264,671.987Z" style="fill:url(#_Linear18);fill-rule:nonzero;"/><path d="M50.06,666.046C71.768,647.224 52.29,617.14 52.29,617.14C24.851,647.17 50.06,666.046 50.06,666.046Z" style="fill:url(#_Linear19);fill-rule:nonzero;"/><path d="M492.814,679.217C497.858,650.936 463.802,639.78 463.802,639.78C461.339,680.386 492.814,679.217 492.814,679.217Z" style="fill:url(#_Linear20);fill-rule:nonzero;"/><path d="M425.292,721.607C440.292,697.088 412.63,674.307 412.63,674.307C395.555,711.232 425.292,721.607 425.292,721.607Z" style="fill:url(#_Linear21);fill-rule:nonzero;"/><path d="M336.159,745.752C354.116,723.315 329.528,697.24 329.528,697.24C307.959,731.733 336.159,745.752 336.159,745.752Z" style="fill:url(#_Linear22);fill-rule:nonzero;"/><path d="M296.204,747.776C315.966,726.919 293.641,698.882 293.641,698.882C269.266,731.451 296.204,747.776 296.204,747.776Z" style="fill:url(#_Linear23);fill-rule:nonzero;"/></g><g><path d="M76.487,773.349C97.319,753.556 76.487,724.387 76.487,724.387C50.444,755.637 76.487,773.349 76.487,773.349Z" style="fill:url(#_Linear24);fill-rule:nonzero;"/><path d="M128.702,770.569C149.527,750.775 128.702,721.607 128.702,721.607C102.658,752.857 128.702,770.569 128.702,770.569Z" style="fill:url(#_Linear25);fill-rule:nonzero;"/><path d="M257.294,508.331C257.294,508.331 283.337,816.243 0,757.912L0,791.249C0,791.249 282.294,844.794 275,508.331L257.294,508.331Z" style="fill:url(#_Linear26);fill-rule:nonzero;"/><path d="M164.466,813.068C169.797,784.837 135.841,773.349 135.841,773.349C132.984,813.93 164.466,813.068 164.466,813.068Z" style="fill:url(#_Linear27);fill-rule:nonzero;"/><path d="M97.321,832.833C118.158,813.039 97.321,783.871 97.321,783.871C71.277,815.121 97.321,832.833 97.321,832.833Z" style="fill:url(#_Linear28);fill-rule:nonzero;"/><path d="M195.077,728.772C209.046,766.978 237.434,753.328 237.434,753.328C232.059,730.84 207.909,728.64 198.677,728.64C196.44,728.64 195.077,728.772 195.077,728.772Z" style="fill:url(#_Linear29);fill-rule:nonzero;"/><path d="M248.843,655.162C282.481,678.037 297.571,650.39 297.571,650.39C288.993,642.963 279.593,642.146 271.354,643.876C258.729,646.527 248.843,655.162 248.843,655.162Z" style="fill:url(#_Linear30);fill-rule:nonzero;"/><path d="M262.819,597.827C297.961,618.318 311.097,589.688 311.097,589.688C302.969,583.587 294.562,582.818 287.078,584.371C273.388,587.213 262.819,597.827 262.819,597.827Z" style="fill:url(#_Linear31);fill-rule:nonzero;"/><path d="M188.304,650.49C201.504,688.965 230.16,675.883 230.16,675.883C225.023,652.309 198.991,650.415 190.785,650.421C189.223,650.421 188.304,650.49 188.304,650.49Z" style="fill:url(#_Linear32);fill-rule:nonzero;"/><path d="M210.588,580.379C228.12,617.086 255.082,600.81 255.082,600.81C248.87,582.648 231.113,579.629 219.995,579.635C214.47,579.635 210.588,580.379 210.588,580.379Z" style="fill:url(#_Linear33);fill-rule:nonzero;"/></g><g><path d="M0,0L0,537.769C24.387,546.887 57.012,538.844 80.206,511.462C94.794,563.538 154.688,569.269 184.375,523.962C205.731,584.894 260.938,556.769 266.663,513.544C308.856,579.169 514.587,554.688 473.956,389.594C514.587,395.831 541.669,379.688 521.875,321.875C548.962,329.169 572.919,314.063 582.294,292.713C622.919,332.813 711.981,305.725 696.875,232.294C724.475,246.875 791.144,214.063 750,138.544C786.456,155.725 858.856,127.6 819.794,55.206C838.713,43.619 852.262,21.719 856.056,0L0,0Z" style="fill:url(#_Linear34);fill-rule:nonzero;"/><path d="M52.193,452.227C60.237,431.769 52.32,414.799 42.393,402.943C32.465,391.088 20.527,384.348 20.527,384.348C4.632,444.515 52.193,452.227 52.193,452.227ZM366.41,450.389C387.755,445.501 397.259,429.45 401.426,414.621C405.593,399.792 404.423,386.186 404.423,386.186C346.011,406.943 366.41,450.389 366.41,450.389ZM251.48,402.607C253.444,380.711 241.074,366.653 228.213,358.069C215.351,349.485 201.999,346.375 201.999,346.375C203.67,408.584 251.48,402.607 251.48,402.607ZM758.307,321.875C763.502,300.514 753.357,284.775 741.914,274.375C730.471,263.976 717.728,258.917 717.728,258.917C710.139,320.684 758.307,321.875 758.307,321.875ZM499.848,274.608C519.678,265.119 525.451,247.305 526.266,231.864C527.082,216.423 522.94,203.353 522.94,203.353C470.3,236.548 499.848,274.608 499.848,274.608ZM686.954,164.44C682.359,142.942 666.386,133.169 651.562,128.77C636.738,124.371 623.063,125.346 623.063,125.346C643.047,184.282 686.954,164.44 686.954,164.44ZM689.582,61.165C667.828,57.996 653.109,69.572 643.829,81.94C634.548,94.308 630.705,107.468 630.705,107.468C692.912,109.233 689.582,61.165 689.582,61.165Z" style="fill:#66cc49;fill-rule:nonzero;"/></g><g><path d="M0,0L0,350.406C67.431,380.356 176.075,366.075 183.4,243.287C220.356,261.294 251.006,253.906 249.231,192.825C272.944,207.813 300.3,200.488 315.587,182.875C342.494,233.219 435.588,233.744 442.925,159.131C464.962,181.244 538.363,169.656 521.444,85.337C551.175,112.563 628.656,107.156 612.806,26.438C628.331,22.494 642.775,12.588 653.394,0L0,0Z" style="fill:url(#_Linear35);fill-rule:nonzero;"/><path d="M356.372,172.157C365.907,152.349 359.267,134.84 350.243,122.284C341.219,109.727 329.812,102.122 329.812,102.122C309.511,160.949 356.372,172.157 356.372,172.157ZM278.746,172.008C299.064,163.617 305.802,146.145 307.46,130.771C309.118,115.398 305.696,102.122 305.696,102.122C251.322,132.391 278.746,172.008 278.746,172.008ZM169.012,55.456C164.387,33.965 148.4,24.214 133.57,19.835C118.74,15.457 105.067,16.451 105.067,16.451C125.132,75.359 169.012,55.456 169.012,55.456Z" style="fill:#5ac549;fill-rule:nonzero;"/></g></g><g id="Tree-Right" serif:id="Tree Right"><g id="Trunk"><path d="M1864.93,236.367L1952.27,1587.41L1742.11,1587.41L1706.63,236.367L1864.93,236.367Z" style="fill:url(#_Linear36);"/><path d="M1879.11,715.346L2000,550.26L2000,515.065L1879.11,626.423L1879.11,715.346Z" style="fill:url(#_Linear37);"/><path d="M1864.93,236.367L1952.27,1587.41L1877.11,1587.41L1826.63,236.367L1864.93,236.367Z" style="fill:url(#_Linear38);"/><path d="M1895.42,707.995C1873.52,730.063 1860.19,761.113 1861.52,793.277C1864.98,867.908 1868.35,942.545 1872.47,1017.14C1874.72,1054.79 1893.09,1090.85 1921.77,1115.58L1921.28,1108.05C1895.97,1084.51 1879.82,1051.04 1877.89,1016.25C1874.08,941.671 1870.02,867.097 1866.95,792.48C1865.93,764.162 1876.89,736.254 1895.9,715.41L1895.42,707.995Z" style="fill:#6c5047;fill-rule:nonzero;"/><path d="M1761.67,236.367L1815.31,1587.41L1722.33,1587.41L1706.63,236.367L1761.67,236.367Z" style="fill:url(#_Linear39);"/><g id="Branch"><path d="M1624.48,739.168L1543.1,511.247L1521.54,504.392L1570.28,709.73L1624.48,739.168Z" style="fill:url(#_Linear40);"/><path d="M1606.03,513.166C1545.03,513.68 1550.02,560.665 1550.02,560.665C1592.88,565.292 1606.03,513.169 1606.03,513.169L1606.03,513.166Z" style="fill:url(#_Linear41);fill-rule:nonzero;"/><path d="M1343.81,606.354C1399.3,631.724 1414.68,587.056 1414.68,587.056C1397.46,576.61 1380.86,580.142 1368.07,586.862C1353.47,594.527 1343.81,606.354 1343.81,606.354Z" style="fill:url(#_Linear42);fill-rule:nonzero;"/><path d="M1408.72,550.92C1445.13,501.98 1404.66,477.602 1404.66,477.602C1375.11,508.978 1408.72,550.92 1408.72,550.92Z" style="fill:url(#_Linear43);fill-rule:nonzero;"/><path d="M1750.4,780.1L1385.79,526.277L1350,526.277L1762.71,911.888L1750.4,780.1Z" style="fill:url(#_Linear44);"/><path d="M1455.75,625.079C1470.14,624.346 1484.38,629.081 1495.43,638.115C1562.92,694.284 1630.3,750.599 1697.24,807.432C1707.92,816.722 1715.01,829.928 1716.81,844.015L1720.24,872.204L1714.03,866.406L1711.39,844.691C1709.73,831.672 1703.14,819.605 1693.21,811.168C1626.12,754.887 1559.26,698.338 1491.95,642.326C1483.39,635.324 1472.6,631.154 1461.59,630.537L1455.75,625.079Z" style="fill:#5e443d;fill-rule:nonzero;"/></g><path d="M1709.6,492.407L1709.67,498.581C1730.9,512.729 1745.99,536.408 1747.87,562.99C1756.88,701.92 1765.46,840.878 1773.63,979.86C1776.07,1026.25 1753.56,1072.53 1716.68,1101.43L1716.76,1108.12C1755.97,1079.13 1781.8,1031.13 1779.08,979.556C1770.9,840.552 1762.32,701.572 1753.32,562.62C1751.28,533.898 1734.15,507.494 1709.6,492.407Z" style="fill:#4e3632;fill-rule:nonzero;"/><path d="M1863.22,1215.7C1847.57,1199.89 1826.71,1174.71 1826.2,1155.82C1820.52,878.483 1809.87,236.367 1809.87,236.367L1815.31,236.367C1815.31,236.367 1831.65,1155.69 1831.65,1155.69C1832.08,1171.43 1850.12,1194.69 1862.93,1207.96L1863.22,1215.7Z" style="fill:#5e443d;"/><path d="M1862.93,1207.96L1867.15,1212.49C1882.33,1227.07 1893.98,1245.73 1896.05,1266.82C1906.09,1375.35 1923.11,1581.5 1923.6,1587.41L1918.12,1587.41L1890.7,1268.23C1889.17,1250.54 1881.17,1233.56 1868.44,1221.12L1863.22,1215.7L1862.93,1207.96Z" style="fill:#6c5047;"/><path d="M1803.1,1279.92C1817.87,1297.43 1828.66,1317.83 1833.07,1340.45C1848.53,1419.6 1844.57,1502.7 1836.53,1583.98C1836.41,1585.19 1836.14,1586.39 1835.74,1587.41L1830.77,1587.41C1830.74,1587.06 1830.75,1586.83 1830.75,1586.83C1834.67,1549.55 1836.59,1511.99 1837.03,1474.49C1837.6,1425.16 1837.75,1375.44 1825.02,1329.64C1820.61,1313.79 1813.24,1299.53 1803.38,1286.93L1803.1,1279.92Z" style="fill:#fff;fill-opacity:0.25;"/><path d="M1718.04,1218.6L1739.47,1229C1763.31,1241.63 1785.96,1258.79 1803.1,1279.92L1803.38,1286.93C1783.03,1259.32 1752.15,1238.84 1718.11,1224.17L1718.04,1218.6Z" style="fill:#4e3632;"/><path d="M1719.31,1327.97L1719.4,1335.44C1744.69,1358.6 1763.82,1388.46 1760.97,1423.28C1758.89,1448.6 1743.05,1471.49 1721.16,1486.96L1721.23,1493.18C1750.25,1473.65 1772.04,1441.94 1765.51,1403.2C1760.45,1373.21 1741.52,1347.43 1719.31,1327.97Z" style="fill:#4e3632;fill-rule:nonzero;"/></g><g id="Leaves"><g><path d="M1231.72,325.126C1252.03,360.355 1277.66,342.034 1277.66,342.034C1275.43,336.864 1272.31,333.069 1268.73,330.314C1254.06,318.998 1231.72,325.126 1231.72,325.126Z" style="fill:url(#_Linear45);fill-rule:nonzero;"/><path d="M1180.59,331.475C1218.75,345.544 1226.71,315.069 1226.71,315.069C1214.04,308.646 1202.62,312.579 1194.32,318.204C1185.83,323.955 1180.59,331.475 1180.59,331.475Z" style="fill:url(#_Linear46);fill-rule:nonzero;"/><path d="M1233.77,414.995C1246.8,453.518 1275.51,440.573 1275.51,440.573C1274.34,435.069 1272.03,430.737 1269.06,427.334C1256.88,413.358 1233.77,414.995 1233.77,414.995Z" style="fill:url(#_Linear47);fill-rule:nonzero;"/><path d="M1186.97,407.786C1226.1,418.888 1231.72,387.904 1231.72,387.904C1219.32,382.764 1208.74,386.766 1200.98,392.489C1192.14,399.014 1186.97,407.786 1186.97,407.786Z" style="fill:url(#_Linear48);fill-rule:nonzero;"/><path d="M1222.67,254.491C1222.67,254.491 1217.98,456.973 1252.36,565.885C1252.36,565.885 1225.8,360.741 1244.55,254.491L1222.67,254.491Z" style="fill:url(#_Linear49);fill-rule:nonzero;"/></g><g><path d="M1480.19,401.518C1469.13,440.65 1439.8,429.173 1439.8,429.173C1440.69,423.618 1442.78,419.173 1445.57,415.625C1457.03,401.051 1480.19,401.518 1480.19,401.518Z" style="fill:url(#_Linear50);fill-rule:nonzero;"/><path d="M1526.57,391.952C1488.05,405.018 1480.88,374.358 1480.88,374.358C1493,368.597 1503.77,372.059 1511.8,377.383C1520.96,383.452 1526.57,391.952 1526.57,391.952Z" style="fill:url(#_Linear51);fill-rule:nonzero;"/><path d="M1483.17,240.658C1483.17,240.658 1498.08,442.643 1469.26,553.154C1469.26,553.154 1485.42,346.93 1461.32,241.764L1483.17,240.658Z" style="fill:url(#_Linear52);fill-rule:nonzero;"/></g><g><path d="M1122.5,0C1088.01,27.981 1100.28,80.15 1142.12,90.625C1040.62,106.25 1053.19,202.088 1154.69,204.688C1115.62,289.063 1193.75,301.563 1235.42,256.25C1252.09,333.331 1302.09,321.875 1339.59,279.431C1343.75,426.563 1485.42,379.162 1522.92,315.919C1535.96,387.494 1585.42,393.744 1608.34,358.331C1598.95,406.244 1616.67,418.744 1643.75,400C1587.5,483.212 1664.59,512.494 1704.17,464.287C1715,527.075 1777.09,529.156 1808.34,474.862C1843.75,513.612 1902.09,483.325 1897.92,437.5C1939.59,513.612 2000,443.75 2000,443.75L2000,0L1122.5,0Z" style="fill:url(#_Linear53);fill-rule:nonzero;"/><path d="M1823.32,641.514C1856.95,590.619 1815.19,568.534 1815.19,568.534C1787.42,601.509 1823.32,641.514 1823.32,641.514Z" style="fill:url(#_Linear54);fill-rule:nonzero;"/><path d="M1931.3,555.78C1956.14,500.068 1911.33,485.114 1911.33,485.114C1889.33,522.189 1931.3,555.78 1931.3,555.78Z" style="fill:url(#_Linear55);fill-rule:nonzero;"/><path d="M1656.1,433.451C1684.84,423.226 1694.18,407.425 1696.34,394.179C1698.5,380.933 1693.48,370.244 1693.48,370.244C1651.47,379.899 1656.1,433.451 1656.1,433.451ZM1949.05,346.348C1965.87,320.901 1963.84,302.656 1957.6,290.772C1951.36,278.889 1940.92,273.367 1940.92,273.367C1913.15,306.342 1949.05,346.348 1949.05,346.348ZM1555.9,322.881C1569.7,295.681 1565.6,277.787 1558.05,266.693C1550.5,255.599 1539.49,251.305 1539.49,251.305C1515.67,287.235 1555.9,322.881 1555.9,322.881ZM1384.69,296.506C1398.49,269.306 1394.39,251.412 1386.84,240.318C1379.28,229.224 1368.28,224.93 1368.28,224.93C1344.46,260.86 1384.69,296.506 1384.69,296.506ZM1293.65,250.814C1324.02,253.707 1339.17,243.342 1346.73,232.254C1354.29,221.167 1354.26,209.356 1354.26,209.356C1312.11,200.33 1293.65,250.814 1293.65,250.814ZM1718.69,247.933C1747.42,237.708 1756.77,221.906 1758.93,208.661C1761.09,195.415 1756.07,184.726 1756.07,184.726C1714.05,194.381 1718.69,247.933 1718.69,247.933ZM1197.84,242.837C1227.74,236.806 1239.24,222.494 1243.26,209.691C1247.29,196.888 1243.84,185.592 1243.84,185.592C1200.87,189.17 1197.84,242.837 1197.84,242.837Z" style="fill:#67cd49;fill-rule:nonzero;"/></g><g><path d="M1432.96,0C1452.62,60.169 1498.25,47.487 1533.08,8.063C1537.24,155.2 1678.91,107.794 1716.41,44.55C1729.46,116.125 1778.91,122.375 1801.83,86.969C1792.44,134.875 1810.16,147.381 1837.24,128.631C1780.99,211.844 1858.08,241.125 1897.66,192.912C1908.29,254.519 1968.23,257.65 2000,206.481L2000,0L1432.96,0ZM1346.76,0C1360.52,14.556 1387.29,14.05 1410.49,0L1346.76,0Z" style="fill:url(#_Linear56);fill-rule:nonzero;"/><path d="M1928.03,132.991C1938.46,104.329 1932.23,87.058 1923.4,76.952C1914.57,66.846 1903.13,63.906 1903.13,63.906C1883.8,102.439 1928.03,132.991 1928.03,132.991ZM1584.16,78.312C1605.18,56.209 1606.38,37.89 1602.32,25.096C1598.27,12.303 1588.96,5.036 1588.96,5.036C1555.84,32.629 1584.16,78.312 1584.16,78.312ZM1656.39,72.686C1660.35,42.443 1650.52,26.936 1639.7,18.991C1628.89,11.045 1617.08,10.661 1617.08,10.661C1606.59,52.473 1656.39,72.686 1656.39,72.686ZM1983.68,48.33C1960.15,28.918 1941.8,29.01 1929.32,33.955C1916.84,38.9 1910.25,48.698 1910.25,48.698C1940.1,79.798 1983.68,48.33 1983.68,48.33Z" style="fill:#7bd949;fill-rule:nonzero;"/></g></g></g><g id="Bush-Front" serif:id="Bush Front"><g id="Flower-Right" serif:id="Flower Right"><path d="M1571.19,1031.3C1560.2,1025.83 1541.01,1028.62 1541.01,1028.62C1541.01,1028.62 1554.69,1063.62 1583.14,1050.09C1583.14,1050.09 1582.43,1040.37 1575.38,1034.13C1574.18,1033.06 1572.79,1032.1 1571.19,1031.3Z" style="fill:url(#_Linear57);fill-rule:nonzero;"/><path d="M1573.58,945.994C1573.58,945.994 1593.63,1083.75 1590.77,1142.87L1582.31,1142.87C1582.31,1142.87 1584.39,1043.65 1568.05,945.994L1573.58,945.994Z" style="fill:url(#_Linear58);fill-rule:nonzero;"/><path d="M1595.4,936.244C1641.15,941.313 1622.8,968.656 1587.99,948.288C1613.22,992.531 1567.8,994.506 1566.55,955.906C1555.85,999.1 1531.78,987.794 1542.93,952.869C1519.28,978.419 1493.11,956.425 1537.58,943.263C1506,929.981 1527.09,912.794 1549.79,931.613C1541.55,910.938 1559.52,903.031 1564.05,927.075C1571.12,904.594 1590.77,907.325 1584.27,927.431C1616.55,908.5 1634.9,929.594 1595.4,936.244Z" style="fill:url(#_Linear59);fill-rule:nonzero;"/><path d="M1537.69,946.375C1539.07,954.231 1553.11,958.344 1569.05,955.538C1584.99,952.744 1596.79,944.106 1595.4,936.244C1594.02,928.375 1579.99,924.275 1564.05,927.069C1548.11,929.863 1536.31,938.5 1537.69,946.375Z" style="fill:url(#_Linear60);fill-rule:nonzero;"/><path d="M1593.28,1010.38C1604.69,1002.22 1626.86,1001.89 1626.86,1001.89C1626.86,1001.89 1617.75,1043.88 1583.19,1033.76C1583.19,1033.76 1582.22,1022.66 1589.06,1014.33C1590.22,1012.91 1591.61,1011.57 1593.28,1010.38Z" style="fill:url(#_Linear61);fill-rule:nonzero;"/></g><path d="M1563.51,1142.93C1535.66,1084.6 1490.12,1111.46 1478.18,1173.96C1466.35,1141.67 1437.1,1126.34 1433.12,1167.71C1415.92,1126.34 1380.18,1132.09 1373.34,1189.75C1333.57,1144.7 1324.93,1223.44 1324.93,1223.44L1340.3,1372.92L2000,1442.17L2000,1320.44C2000,1320.44 2000,1249.59 1949.9,1283.06C1952.46,1241.24 1928.69,1222.58 1901.19,1267.8C1917.1,1183.43 1864,1157.29 1810.97,1233.44C1824.22,1186.46 1785.11,1158.33 1742.55,1208.33C1742.55,1160.41 1729.06,1131.92 1680.01,1185.04C1680.01,1111.96 1648.19,1100.74 1616.07,1146.88C1616.07,1117.89 1607.3,1100.74 1595.91,1100.74C1585.6,1100.75 1573.59,1110.86 1563.51,1142.93Z" style="fill:url(#_Linear62);fill-rule:nonzero;"/><path d="M1523.26,1275.64C1537.92,1250.91 1509.93,1228.53 1509.93,1228.53C1493.38,1265.69 1523.26,1275.64 1523.26,1275.64Z" style="fill:#81dc49;fill-rule:nonzero;"/><g id="Plant"><path d="M1373.74,1050C1373.74,1050 1395.18,1161.46 1395.94,1252.08L1415.11,1252.08C1415.11,1252.08 1404.17,1119.79 1389.1,1050L1373.74,1050Z" style="fill:url(#_Linear63);fill-rule:nonzero;"/><path d="M1353.52,963.516C1391.37,1007.97 1433.12,971.616 1433.12,971.616C1420.77,953.079 1406.53,947.285 1393.52,947.285C1365.16,947.285 1353.52,963.516 1353.52,963.516Z" style="fill:url(#_Linear64);fill-rule:nonzero;"/><path d="M1313.54,971.298C1272.35,995.4 1259.53,1047.28 1236.64,1054.3C1236.64,1054.3 1320.48,1119.8 1380.18,978.417C1380.18,978.417 1366.93,962.169 1344.09,962.169C1335.27,962.163 1325.02,964.586 1313.54,971.298Z" style="fill:url(#_Linear65);fill-rule:nonzero;"/><path d="M1420.14,970.263C1377.96,1105.79 1536.46,1056.61 1536.46,1056.61C1512.5,1043.41 1515.62,1030.21 1483.33,990.625C1466.94,970.544 1450.92,965.594 1439.11,965.594C1427.64,965.594 1420.14,970.263 1420.14,970.263Z" style="fill:url(#_Linear66);fill-rule:nonzero;"/><path d="M1340.62,989.587C1317.71,1026.04 1316.66,1093.98 1359.38,1151.04C1359.38,1151.04 1435.19,1113.59 1435.42,1014.59C1435.56,951.944 1389.47,963.544 1389.47,963.544C1389.47,963.544 1386.04,962.169 1380.58,962.169C1371.01,962.162 1355.21,966.381 1340.62,989.587Z" style="fill:url(#_Linear67);fill-rule:nonzero;"/><path d="M1384.48,973.459C1384.48,973.459 1345.2,1027.41 1360.34,1137.69C1360.34,1137.69 1354.19,1055.81 1384.48,973.459" style="fill:#136f61;"/></g><g><path d="M731.25,1078.91C689.063,1003.12 667.969,1053.91 673.438,1132.03C660.938,1103.91 637.5,1096.88 640.625,1153.12C616.406,1073.86 579.688,1088.79 585.938,1171.91C550,1096.88 520.294,1103.91 541.406,1198.99C476.563,1140.62 494.531,1243.48 494.531,1243.48L454.187,1396.7L1090.13,1373.51L1090.13,1243.48C1090.13,1243.48 1094.53,1168.75 1059.38,1191.41C1065.62,1146.09 1045.64,1126.34 1014.06,1171.88C1014.06,1122.66 985.937,1082.03 950,1126.82C946.875,1062.5 918.75,1050.78 889.063,1126.82C883.594,1042.97 857.281,1050.78 834.375,1110.19C832.813,1062.5 819.531,1035.16 796.094,1073.86C784.731,1024.66 769.887,1002.18 757.269,1002.19C743.313,1002.19 732.069,1029.68 731.25,1078.91Z" style="fill:url(#_Linear68);fill-rule:nonzero;"/><path d="M627.197,1234.64C638.261,1208.11 607.414,1189.85 607.414,1189.85C596.218,1228.96 627.197,1234.64 627.197,1234.64Z" style="fill:#81dc49;fill-rule:nonzero;"/><path d="M781.931,1227.11C788.838,1199.21 755.576,1185.85 755.576,1185.85C750.448,1226.2 781.931,1227.11 781.931,1227.11Z" style="fill:#81dc49;fill-rule:nonzero;"/><path d="M800.973,1207.27C825.324,1192 810.688,1159.28 810.688,1159.28C778.961,1184.74 800.973,1207.27 800.973,1207.27Z" style="fill:#81dc49;fill-rule:nonzero;"/><path d="M892.867,1268.45C917.218,1253.18 902.582,1220.46 902.582,1220.46C870.856,1245.92 892.867,1268.45 892.867,1268.45Z" style="fill:#81dc49;fill-rule:nonzero;"/></g><g id="Flower-Left" serif:id="Flower Left"><path d="M447.66,1190.06C458.646,1184.59 477.837,1187.38 477.837,1187.38C477.837,1187.38 464.155,1222.37 435.709,1208.85C435.709,1208.85 436.417,1199.13 443.469,1192.88C444.672,1191.82 446.059,1190.86 447.66,1190.06Z" style="fill:url(#_Linear69);fill-rule:nonzero;"/><path d="M445.269,1104.75C445.269,1104.75 425.219,1242.51 428.082,1301.63L436.538,1301.63C436.538,1301.63 434.457,1202.41 450.801,1104.75L445.269,1104.75Z" style="fill:url(#_Linear70);fill-rule:nonzero;"/><path d="M423.444,1095C377.694,1100.07 396.051,1127.41 430.857,1107.05C405.626,1151.29 451.051,1153.26 452.301,1114.66C463.001,1157.86 487.069,1146.55 475.919,1111.63C499.569,1137.18 525.738,1115.18 481.269,1102.02C512.851,1088.74 491.757,1071.55 469.063,1090.37C477.301,1069.7 459.332,1061.79 454.801,1085.83C447.732,1063.35 428.082,1066.08 434.576,1086.19C402.301,1067.26 383.944,1088.35 423.444,1095Z" style="fill:url(#_Linear71);fill-rule:nonzero;"/><path d="M481.157,1105.13C479.776,1112.99 465.738,1117.1 449.801,1114.3C433.863,1111.5 422.063,1102.86 423.444,1095C424.826,1087.13 438.857,1083.03 454.794,1085.83C470.738,1088.62 482.538,1097.26 481.157,1105.13Z" style="fill:url(#_Linear72);fill-rule:nonzero;"/><path d="M425.573,1169.14C414.162,1160.98 391.99,1160.65 391.99,1160.65C391.99,1160.65 401.097,1202.63 435.662,1192.52C435.662,1192.52 436.624,1181.42 429.793,1173.09C428.628,1171.67 427.237,1170.33 425.573,1169.14Z" style="fill:url(#_Linear73);fill-rule:nonzero;"/></g><path d="M1886.25,1361.87C1882.08,1314.99 1846.77,1323.99 1845.72,1368.77C1836.35,1316.29 1805.21,1320.44 1796.18,1390.2C1772.92,1340.63 1761.46,1407.09 1761.46,1407.09L2000,1454.22L2000,1429.75C1998.69,1430.49 1997.3,1431.34 1995.84,1432.29C1997.49,1428.76 1998.88,1425.28 2000,1421.9L2000,1391.38C1995.12,1384.93 1984.75,1384.29 1967.72,1393.76C1992.71,1354.17 1981.26,1320.44 1940.63,1362.51C1942.67,1328.73 1934.41,1312.8 1923.11,1312.8C1911.39,1312.81 1896.42,1329.88 1886.25,1361.87Z" style="fill:url(#_Linear74);fill-rule:nonzero;"/><g><path d="M138.55,1220.83C96.881,1144.79 63.55,1183.33 62.506,1262.49C36.469,1218.74 18.756,1233.33 23.969,1301.04C16.656,1279.97 7.837,1273.99 0,1274.23L0,1450L664.125,1450L664.125,1354.77C664.125,1354.77 655.075,1269.53 608.094,1337.46C596.488,1262.11 551.169,1252.74 519.781,1303.13C519.9,1233.73 473.825,1218.36 443.756,1284.38C430.075,1214.06 400,1198.83 356.256,1251.04C356.25,1180.47 327.344,1157.81 288.55,1217.71C283.594,1154.3 247.669,1140.62 227.163,1201.53C214.438,1150.14 194.869,1126.82 177.35,1126.82C156.163,1126.83 137.981,1160.96 138.55,1220.83Z" style="fill:url(#_Linear75);fill-rule:nonzero;"/><path d="M396.434,1331.34C421.181,1316.73 407.42,1283.62 407.42,1283.62C375.028,1308.23 396.434,1331.34 396.434,1331.34Z" style="fill:#81dc49;fill-rule:nonzero;"/><path d="M62.549,1377.36C73.645,1350.85 42.821,1332.55 42.821,1332.55C31.576,1371.64 62.549,1377.36 62.549,1377.36Z" style="fill:#81dc49;fill-rule:nonzero;"/></g><g><path d="M1175,1132.29C1167.71,1079.17 1121.88,1062.5 1127.08,1148.96C1085.42,1088.54 1068.75,1120.83 1087.01,1205.06C1060.22,1168.97 1034.63,1168.75 1034.63,1234.38C1010.42,1188.55 991.806,1191.67 1000,1271.88C951.044,1204.17 927.081,1229.17 973.956,1311.46C911.456,1264.58 950.119,1334.62 950.119,1334.62L950.119,1378.62L1496.72,1387.5L1496.72,1353.56C1496.72,1353.56 1507.29,1277.08 1467.71,1311.46C1481.25,1270.83 1467.71,1233.44 1427.08,1276.04C1431.25,1228.12 1415.62,1199.44 1373.74,1245.84C1378.12,1215.62 1373.74,1168.75 1335.42,1206.25C1331.25,1162.5 1319.05,1133.33 1280.21,1178.12C1289.59,1140.62 1277.09,1100 1236.46,1153.12C1235.89,1104.01 1225.85,1079.38 1212.45,1079.38C1201.12,1079.38 1187.41,1096.99 1175,1132.29Z" style="fill:url(#_Linear76);fill-rule:nonzero;"/><path d="M1147.39,1227.11C1163.42,1203.26 1136.74,1179.32 1136.74,1179.32C1118.12,1215.49 1147.39,1227.11 1147.39,1227.11Z" style="fill:#84de49;fill-rule:nonzero;"/><path d="M1257.97,1217C1277.39,1195.81 1254.59,1168.15 1254.59,1168.15C1230.77,1201.12 1257.97,1217 1257.97,1217Z" style="fill:#84de49;fill-rule:nonzero;"/><path d="M1271.62,1226.98C1300.24,1229.55 1308.38,1194.64 1308.38,1194.64C1267.72,1195.72 1271.62,1226.98 1271.62,1226.98Z" style="fill:#84de49;fill-rule:nonzero;"/></g></g><g id="Ground"><path d="M1142.17,1333.34C1130.72,1318.75 1119.99,1323.96 1117.04,1342.71C1112.87,1323.96 1098.44,1321.88 1090.13,1337.51C1082.29,1319.27 1067.71,1318.75 1058.34,1342.71C1046.88,1322.91 1030.73,1325.52 1018.75,1345.31C1011.46,1330.21 989.063,1324.48 980.206,1342.71C971.356,1327.08 950.525,1329.16 940.625,1342.71C929.169,1329.17 908.337,1330.21 897.913,1346.88C887.5,1334.89 864.587,1329.69 852.087,1346.88C842.706,1332.61 823.438,1335.42 815.625,1352.09C801.563,1335.42 788.544,1335.94 776.569,1352.14C775.006,1337.55 753.65,1335.42 745.837,1352.09C736.975,1335.94 711.981,1334.89 703.125,1358.34C693.75,1344.27 668.225,1342.71 656.25,1364.59C650.519,1351.56 632.813,1347.39 625,1364.59C620.313,1350 605.212,1343.23 594.794,1364.59C589.581,1348.44 569.788,1345.31 559.375,1364.59C551.563,1347.39 526.563,1344.79 514.587,1364.59C507.294,1351.04 491.663,1348.96 480.212,1364.59C473.956,1351.04 456.775,1345.31 445.831,1364.59C434.894,1348.44 414.587,1347.39 404.169,1372.92C397.394,1353.64 377.6,1352.61 365.625,1372.92C357.813,1356.77 346.356,1356.25 339.587,1372.92C330.731,1358.85 311.462,1356.25 302.2,1378.63C298.031,1359.88 269.794,1365.62 263.544,1393.76C256.25,1372.92 234.894,1368.23 226.044,1393.76C218.231,1377.61 188.544,1372.92 186.456,1403.13C176.563,1387.5 156.25,1385.42 148.962,1413.54C145.313,1393.23 128.65,1393.23 116.669,1413.54C109.894,1394.79 91.663,1392.71 81.587,1420.25C77.087,1396.36 49.65,1397.4 44.275,1420.83C35.587,1406.78 9.375,1402.61 0,1428.13L0,1493.75L6.25,1493.75L6.25,1464.58C6.25,1464.58 352.087,1372.92 1000,1372.92C1647.91,1372.92 1999.38,1464.58 1999.38,1464.58L1999.38,1493.75L2000,1493.75L2000,1438.55C2000,1438.55 1985.94,1407.09 1966.66,1426.05C1967.71,1407.09 1948.44,1403.64 1939.58,1421.88C1934.89,1403.12 1920.83,1397.39 1910.41,1413.54C1909.89,1391.66 1893.23,1391.14 1885.41,1413.54C1880.73,1396.88 1866.66,1388.02 1855.21,1406.26C1854.16,1391.14 1841.14,1383.33 1829.16,1398.96C1829.69,1369.27 1804.89,1369.47 1798.96,1394.8C1789.06,1365.1 1772.17,1364.59 1765.34,1391.59C1755.97,1370.74 1749.38,1380.21 1738.44,1392.71C1733.56,1371.87 1720.05,1371.87 1709.63,1387.5C1708.07,1372.39 1691.37,1354.08 1676.04,1380.21C1671.88,1360.94 1650.52,1357.81 1639.58,1372.92C1636.97,1354.16 1618.75,1354.16 1610.42,1372.92C1598.96,1348.44 1569.79,1350.52 1561.46,1372.92C1554.69,1353.12 1532.81,1346.88 1518.75,1364.59C1510.94,1348.96 1492.19,1347.91 1483.34,1366.67C1475,1354.16 1459.89,1350 1450,1364.59C1442.71,1346.88 1425,1342.19 1413.54,1356.26C1408.33,1338.54 1393.23,1335.41 1382.29,1351.05C1379.69,1333.33 1367.71,1331.77 1359.38,1352.09C1355.21,1336.98 1339.58,1330.21 1331.25,1350.01C1323.44,1329.69 1305.21,1320.44 1294.79,1345.84C1288.02,1329.17 1268.75,1328.12 1259.38,1348.96C1256.25,1330.73 1235.42,1320.44 1227.09,1338.55C1224.48,1320.44 1208.33,1320.44 1198.96,1343.76C1194.79,1323.44 1180.21,1320.44 1170.84,1333.34C1169.29,1324.61 1164.34,1320.44 1159.28,1320.44C1154.06,1320.44 1144.02,1324.88 1142.17,1333.34Z" style="fill:url(#_Linear77);fill-rule:nonzero;"/><path d="M2000,1460.08C2000,1460.08 1647.91,1368.42 1000,1368.42C352.081,1368.42 0,1460.08 0,1460.08L0,2000L2000,2000L2000,1460.08Z" style="fill:url(#_Radial78);fill-rule:nonzero;"/><path d="M1693.06,1904C1711.38,1904 1726.25,1908.83 1726.25,1914.77C1726.25,1920.71 1711.38,1925.54 1693.06,1925.54C1674.74,1925.54 1659.87,1920.71 1659.87,1914.77C1659.87,1908.83 1674.74,1904 1693.06,1904ZM1771.26,1872.21C1789.58,1872.21 1804.45,1877.03 1804.45,1882.97C1804.45,1888.91 1789.58,1893.74 1771.26,1893.74C1752.95,1893.74 1738.08,1888.91 1738.08,1882.97C1738.08,1877.03 1752.95,1872.21 1771.26,1872.21ZM737.272,1709.39C755.588,1709.39 770.459,1714.21 770.459,1720.15C770.459,1726.1 755.588,1730.92 737.272,1730.92C718.955,1730.92 704.084,1726.1 704.084,1720.15C704.084,1714.21 718.955,1709.39 737.272,1709.39ZM1392.39,1612.93C1410.71,1612.93 1425.58,1617.76 1425.58,1623.7C1425.58,1629.64 1410.71,1634.47 1392.39,1634.47C1374.08,1634.47 1359.21,1629.64 1359.21,1623.7C1359.21,1617.76 1374.08,1612.93 1392.39,1612.93ZM631.762,1539.4C650.078,1539.4 664.949,1544.23 664.949,1550.17C664.949,1556.11 650.078,1560.93 631.762,1560.93C613.445,1560.93 598.574,1556.11 598.574,1550.17C598.574,1544.23 613.445,1539.4 631.762,1539.4ZM1168.91,1495.47C1187.23,1495.47 1202.1,1500.3 1202.1,1506.24C1202.1,1512.18 1187.23,1517.01 1168.91,1517.01C1150.6,1517.01 1135.72,1512.18 1135.72,1506.24C1135.72,1500.3 1150.6,1495.47 1168.91,1495.47ZM161.141,1494.17C178.526,1494.17 192.641,1498.05 192.641,1502.83C192.641,1507.6 178.526,1511.48 161.141,1511.48C143.755,1511.48 129.64,1507.6 129.64,1502.83C129.64,1498.05 143.755,1494.17 161.141,1494.17ZM1675.98,1487.41C1694.3,1487.41 1709.17,1492.23 1709.17,1498.17C1709.17,1504.12 1694.3,1508.94 1675.98,1508.94C1657.66,1508.94 1642.79,1504.12 1642.79,1498.17C1642.79,1492.23 1657.66,1487.41 1675.98,1487.41Z" style="fill:#43a838;"/><path d="M294.608,1924.99C312.925,1924.99 327.795,1929.81 327.795,1935.76C327.795,1941.7 312.925,1946.52 294.608,1946.52C276.291,1946.52 261.42,1941.7 261.42,1935.76C261.42,1929.81 276.291,1924.99 294.608,1924.99ZM209.203,1893.04C227.52,1893.04 242.391,1897.87 242.391,1903.81C242.391,1909.75 227.52,1914.58 209.203,1914.58C190.887,1914.58 176.016,1909.75 176.016,1903.81C176.016,1897.87 190.887,1893.04 209.203,1893.04ZM1232,1882.27C1250.32,1882.27 1265.18,1887.1 1265.18,1893.04C1265.18,1898.98 1250.32,1903.81 1232,1903.81C1213.68,1903.81 1198.81,1898.98 1198.81,1893.04C1198.81,1887.1 1213.68,1882.27 1232,1882.27ZM1863.2,1716.86C1881.52,1716.86 1896.39,1721.68 1896.39,1727.62C1896.39,1733.57 1881.52,1738.39 1863.2,1738.39C1844.88,1738.39 1830.01,1733.57 1830.01,1727.62C1830.01,1721.68 1844.88,1716.86 1863.2,1716.86ZM845.144,1664.92C863.461,1664.92 878.331,1669.75 878.331,1675.69C878.331,1681.63 863.461,1686.46 845.144,1686.46C826.827,1686.46 811.956,1681.63 811.956,1675.69C811.956,1669.75 826.827,1664.92 845.144,1664.92ZM551.629,1493.28C569.946,1493.28 584.817,1498.11 584.817,1504.05C584.817,1509.99 569.946,1514.82 551.629,1514.82C533.313,1514.82 518.442,1509.99 518.442,1504.05C518.442,1498.11 533.313,1493.28 551.629,1493.28ZM1235.29,1452.48C1253.6,1452.48 1268.47,1457.31 1268.47,1463.25C1268.47,1469.19 1253.6,1474.02 1235.29,1474.02C1216.97,1474.02 1202.1,1469.19 1202.1,1463.25C1202.1,1457.31 1216.97,1452.48 1235.29,1452.48Z" style="fill:#a5dd65;"/></g><g id="Plant-Green" serif:id="Plant Green"><ellipse cx="1794.02" cy="1540.83" rx="46.395" ry="10.767" style="fill:#4daa43;"/><path d="M1820.28,1220.59C1766.55,1344.75 1815.25,1374.13 1815.25,1374.13C1818.21,1434.32 1795.88,1539.61 1795.88,1539.61L1805.23,1539.61C1824.08,1472.97 1828.36,1374.44 1828.36,1374.44C1916.33,1359.11 1904.01,1180.13 1904.01,1180.13L1883.83,1168.69L1905.91,1160.34C1905.3,1077.58 1876.73,1020.64 1876.73,1020.64C1876.73,1020.64 1874.01,1096.44 1820.28,1220.59Z" style="fill:url(#_Linear79);fill-rule:nonzero;"/><path d="M1632.98,970.375C1632.98,970.375 1654.9,1021.67 1659.36,1054.83L1696.1,1075.02L1664.11,1074.75L1670.27,1107.93L1709.89,1124.34L1674.73,1141.09C1674.73,1141.09 1689.09,1350.38 1779.79,1369.12C1779.79,1369.12 1789.28,1479.93 1789.73,1539.57L1799.37,1539.64C1799.37,1539.64 1808.56,1438.44 1797.31,1367.36C1797.31,1367.36 1862.64,1353.71 1805.41,1156.38L1777.8,1152.36L1795.97,1128.85C1795.97,1128.85 1766.06,969.862 1645.26,969.844C1641.26,969.844 1637.18,970.019 1632.98,970.375Z" style="fill:url(#_Linear80);fill-rule:nonzero;"/><path d="M1684.33,1010.56C1684.33,1010.56 1762.8,1137.09 1784.64,1354.96C1784.64,1354.96 1800.5,1155.15 1684.33,1010.56Z" style="fill:url(#_Linear81);fill-rule:nonzero;"/><path d="M1624.1,1306.71L1652.09,1296.95L1638.72,1316.01C1638.72,1316.01 1665.11,1383.06 1742.76,1379.62C1742.76,1379.62 1779.22,1487.09 1781.53,1539.57L1794.62,1539.57C1794.62,1539.57 1782.59,1436.85 1760.81,1378.12C1760.81,1378.12 1808.77,1314.19 1719.05,1251.84L1697.78,1259.09L1706.54,1242.92C1706.54,1242.92 1683.9,1223.21 1665.19,1207.4L1649.03,1214.19L1654.39,1198.8C1654.39,1198.8 1633.76,1186.45 1612,1174.14L1588.11,1178.04L1596.08,1165.37C1596.08,1165.37 1573.04,1147.91 1519.53,1142.93C1519.53,1142.93 1541.17,1230.79 1624.1,1306.71Z" style="fill:url(#_Linear82);fill-rule:nonzero;"/><path d="M1581.15,1192.08C1581.15,1192.08 1681.93,1236.12 1752.11,1363.94C1752.11,1363.94 1625.74,1215.21 1581.15,1192.08Z" style="fill:url(#_Linear83);fill-rule:nonzero;"/></g><g id="Small-Bush-Right" serif:id="Small Bush Right"><ellipse cx="1626.74" cy="1774.29" rx="130.452" ry="21.745" style="fill:#4daa43;"/><path d="M1535.35,1728.19C1452.72,1623.69 1486.81,1728.19 1516.94,1766.31C1516.94,1766.31 1564.85,1779.03 1621.9,1779.03C1678.96,1779.03 1731.16,1766.31 1731.16,1766.31C1731.16,1766.31 1802.12,1629.63 1714.07,1716.37C1741.67,1633.58 1712.76,1587.58 1660.19,1676.94C1649.68,1528.44 1614.97,1549.18 1591.86,1717.68C1578.91,1604.23 1560.48,1549.17 1547.27,1549.18C1533.37,1549.19 1525.24,1610.16 1535.35,1728.19Z" style="fill:url(#_Linear84);fill-rule:nonzero;"/></g><g id="Small-Bush-Left" serif:id="Small Bush Left"><ellipse cx="406.525" cy="1866.34" rx="125.618" ry="21.745" style="fill:#4daa43;"/><path d="M358.816,1785.56C295.304,1613.69 274.135,1684 313.647,1801.19C185.222,1709 300.947,1857.44 300.947,1857.44C300.947,1857.44 328.122,1872.88 398.435,1872.88C468.747,1872.88 507.004,1857.44 507.004,1857.44C507.004,1857.44 567.241,1752.75 485.829,1829.31C518.291,1761.09 507.004,1699.62 447.76,1791.81C464.666,1713.68 437.847,1674.62 403.979,1777.74C402.491,1708.7 391.241,1664.74 380.291,1664.73C370.435,1664.73 360.822,1700.4 358.816,1785.56Z" style="fill:url(#_Linear85);fill-rule:nonzero;"/></g><g id="Mushroom"><ellipse cx="992.059" cy="1428.63" rx="54.662" ry="13.536" style="fill:#59ad40;"/><path d="M971.106,1374.49C971.106,1374.49 964.325,1395.31 967.712,1414.59L1014.08,1414.59L1014.08,1416.15C1014.08,1416.15 1016.15,1392.19 1009.9,1371.62L971.106,1374.49Z" style="fill:url(#_Linear86);fill-rule:nonzero;"/><path d="M990.369,1304.95C938.288,1305.99 921.625,1349.22 921.106,1365.89C920.575,1382.56 956.719,1380.38 988.288,1378.39C1019.86,1376.39 1052.87,1376.83 1059.64,1365.89C1066.34,1355.06 1042.94,1304.94 991.944,1304.94C991.419,1304.94 990.9,1304.94 990.369,1304.95Z" style="fill:url(#_Linear87);fill-rule:nonzero;"/><path d="M985.469,1349.62C979.844,1352.18 976.65,1357.28 978.344,1361.01C980.044,1364.74 985.981,1365.69 991.606,1363.14C997.237,1360.58 1000.44,1355.48 998.744,1351.74C997.688,1349.43 995,1348.19 991.763,1348.19C989.787,1348.19 987.606,1348.65 985.469,1349.62Z" style="fill:url(#_Linear88);fill-rule:nonzero;"/><path d="M926.625,1345.26C933.344,1352.29 945.569,1360.44 959.638,1347.92C972.594,1336.38 966.844,1321.42 960.325,1311.41C942.912,1319.22 932.312,1332.83 926.625,1345.26Z" style="fill:url(#_Linear89);fill-rule:nonzero;"/><path d="M1018.75,1345.31C1029.32,1357.71 1047.17,1354.46 1058.59,1350.58C1053.38,1336.07 1038.56,1316.6 1014.6,1308.62C1010.32,1316.73 1006.52,1330.96 1018.75,1345.31Z" style="fill:url(#_Linear90);fill-rule:nonzero;"/><path d="M980.987,1414.59C972.919,1406.52 956.775,1404.42 956.775,1404.42C961.456,1410.15 967.406,1428.63 967.406,1428.63L1014.41,1428.63C1015.45,1420.56 1027.34,1399.74 1027.34,1399.74C1019.53,1402.34 1002.6,1413.54 1002.6,1413.54L993.75,1393.88C990.369,1400.01 980.987,1414.59 980.987,1414.59Z" style="fill:url(#_Linear91);fill-rule:nonzero;"/></g><g id="Rock-Left" serif:id="Rock Left"><path d="M123.575,1632.83C105.18,1632.4 90.927,1626.8 90.616,1619.36C90.271,1611.07 107.384,1603.61 128.808,1602.72C141.147,1602.2 152.241,1603.98 159.497,1607.16C164.18,1606.42 169.145,1605.93 174.292,1605.71C180.206,1605.47 185.911,1605.61 191.252,1606.09C198.189,1602.17 209.329,1599.36 221.97,1598.83C243.394,1597.94 261.069,1603.94 261.415,1612.24C261.74,1620.04 246.635,1627.09 227.022,1628.65C222.28,1638.21 201.367,1646.1 176.02,1647.15C150.548,1648.22 128.964,1642.03 123.575,1632.83Z" style="fill:#4daa43;"/><path d="M132.573,1586.95L107.345,1614.37L198.229,1627.34L189.562,1586.95L132.573,1586.95Z" style="fill:url(#_Linear92);fill-rule:nonzero;"/><path d="M189.562,1586.95L198.229,1627.34L245.834,1607.15L217.698,1572.53L189.562,1586.95Z" style="fill:url(#_Linear93);fill-rule:nonzero;"/><path d="M163.595,1572.53L132.573,1586.95L189.562,1586.95L217.698,1572.53L163.595,1572.53Z" style="fill:url(#_Linear94);fill-rule:nonzero;"/><path d="M192.093,1598.74L194.669,1584.33L163.225,1586.95L192.093,1598.74Z" style="fill:url(#_Linear95);"/></g><g id="Plant-Yellow" serif:id="Plant Yellow"><ellipse cx="253.529" cy="1464.81" rx="38.792" ry="10.657" style="fill:#4daa43;"/><path d="M211.907,1069.49C115.403,1081.84 3.116,1412.68 247.537,1381.4C485.464,1350.95 317.796,1072.48 219.729,1069.14C217.065,1069.05 214.465,1069.16 211.907,1069.49Z" style="fill:url(#_Linear96);fill-rule:nonzero;"/><path d="M229.361,1212.06L287.28,1175.26L233.262,1232.96L240.711,1272.87L309.229,1230.68L244.574,1293.57L252.883,1338.09L316.028,1299.2L256.443,1357.16L276.38,1463.99C266.699,1467.7 240.206,1469.48 230.979,1463.99L224.042,1331.03L148.414,1284.82L222.773,1306.7L220.452,1262.21L159.6,1219.94L219.197,1238.15L213.363,1126.34L229.361,1212.06Z" style="fill:url(#_Linear97);fill-rule:nonzero;"/></g><g id="Rock-Right" serif:id="Rock Right"><path d="M1025.64,1809.67C993.034,1808.77 967.403,1799.88 967.403,1789.07C967.403,1777.66 995.953,1768.4 1031.12,1768.4C1064.39,1768.4 1091.74,1776.69 1094.59,1787.25C1099.82,1786.93 1105.22,1786.76 1110.73,1786.76C1114.56,1786.76 1118.32,1786.84 1122.01,1787C1128.65,1777.88 1153.91,1771.09 1184.03,1771.09C1219.19,1771.09 1247.74,1780.35 1247.74,1791.76C1247.74,1801.73 1225.92,1810.07 1196.94,1812C1197.31,1813.07 1197.51,1814.16 1197.51,1815.27C1197.51,1831 1158.62,1843.77 1110.73,1843.77C1062.84,1843.77 1023.96,1831 1023.96,1815.27C1023.96,1813.35 1024.54,1811.48 1025.64,1809.67Z" style="fill:#4daa43;"/><path d="M1090.85,1749.85L1077.65,1811.48L1216.31,1791.67L1177.82,1749.85L1090.85,1749.85Z" style="fill:url(#_Linear98);fill-rule:nonzero;"/><path d="M1005.03,1780.66L1077.65,1811.48L1090.85,1749.85L1047.95,1727.84L1005.03,1780.66Z" style="fill:url(#_Linear99);fill-rule:nonzero;"/><path d="M1047.95,1727.84L1090.85,1749.85L1177.82,1749.85L1130.47,1727.84L1047.95,1727.84Z" style="fill:url(#_Linear100);fill-rule:nonzero;"/><path d="M1072.73,1740.55L1085.04,1776.99L1119.22,1749.85L1072.73,1740.55Z" style="fill:url(#_Linear101);"/></g></g><defs><linearGradient id="_Linear1" x1="0" y1="0" x2="1" y2="0" gradientUnits="userSpaceOnUse" gradientTransform="matrix(1.08333e-14,-299.861,-176.922,-1.83612e-14,157.391,1000)"><stop offset="0" style="stop-color:#3d9141;stop-opacity:1"/><stop offset="1" style="stop-color:#1f5e23;stop-opacity:1"/></linearGradient><linearGradient id="_Linear2" x1="0" y1="0" x2="1" y2="0" gradientUnits="userSpaceOnUse" gradientTransform="matrix(1.41653e-14,-215.919,-231.337,-1.32212e-14,1339.04,955.206)"><stop offset="0" style="stop-color:#3d9141;stop-opacity:1"/><stop offset="1" style="stop-color:#1f5e23;stop-opacity:1"/></linearGradient><linearGradient id="_Linear3" x1="0" y1="0" x2="1" y2="0" gradientUnits="userSpaceOnUse" gradientTransform="matrix(2.91519e-15,-212.297,-47.6087,-1.29994e-14,1938.28,914.021)"><stop offset="0" style="stop-color:#3d9141;stop-opacity:1"/><stop offset="1" style="stop-color:#1f5e23;stop-opacity:1"/></linearGradient><linearGradient id="_Linear4" x1="0" y1="0" x2="1" y2="0" gradientUnits="userSpaceOnUse" gradientTransform="matrix(1.9155e-14,-312.825,-312.825,-1.9155e-14,550.277,997.919)"><stop offset="0" style="stop-color:#3d9141;stop-opacity:1"/><stop offset="1" style="stop-color:#1f5e23;stop-opacity:1"/></linearGradient><linearGradient id="_Linear5" x1="0" y1="0" x2="1" y2="0" gradientUnits="userSpaceOnUse" gradientTransform="matrix(4.49947e-14,-734.819,-734.819,-4.49947e-14,1034.63,1493.75)"><stop offset="0" style="stop-color:#00793e;stop-opacity:1"/><stop offset="1" style="stop-color:#7bc142;stop-opacity:1"/></linearGradient><linearGradient id="_Linear6" x1="0" y1="0" x2="1" y2="0" gradientUnits="userSpaceOnUse" gradientTransform="matrix(43.3112,65.2678,-64.8262,43.6063,1685.2,865.726)"><stop offset="0" style="stop-color:#ef9a9a;stop-opacity:1"/><stop offset="1" style="stop-color:#e4655c;stop-opacity:1"/></linearGradient><linearGradient id="_Linear7" x1="0" y1="0" x2="1" y2="0" gradientUnits="userSpaceOnUse" gradientTransform="matrix(-9.78162,-52.3789,-62.9709,8.1363,1118.27,974.245)"><stop offset="0" style="stop-color:#f1a600;stop-opacity:1"/><stop offset="1" style="stop-color:#fae246;stop-opacity:1"/></linearGradient><linearGradient id="_Linear8" x1="0" y1="0" x2="1" y2="0" gradientUnits="userSpaceOnUse" gradientTransform="matrix(34.9585,-40.2135,-45.5067,-44.2795,965.75,1053.64)"><stop offset="0" style="stop-color:#f1a600;stop-opacity:1"/><stop offset="1" style="stop-color:#fae246;stop-opacity:1"/></linearGradient><linearGradient id="_Linear9" x1="0" y1="0" x2="1" y2="0" gradientUnits="userSpaceOnUse" gradientTransform="matrix(5.11204,57.5655,-57.5655,5.11204,701.356,879.421)"><stop offset="0" style="stop-color:#ef9a9a;stop-opacity:1"/><stop offset="1" style="stop-color:#e4655c;stop-opacity:1"/></linearGradient><linearGradient id="_Linear10" x1="0" y1="0" x2="1" y2="0" gradientUnits="userSpaceOnUse" gradientTransform="matrix(-9.75516,-52.2373,-62.8006,8.1143,157.934,1025.9)"><stop offset="0" style="stop-color:#f1a600;stop-opacity:1"/><stop offset="1" style="stop-color:#fae246;stop-opacity:1"/></linearGradient><linearGradient id="_Linear11" x1="0" y1="0" x2="1" y2="0" gradientUnits="userSpaceOnUse" gradientTransform="matrix(459.594,0,0,-459.594,84.375,526.869)"><stop offset="0" style="stop-color:#067b3e;stop-opacity:1"/><stop offset="1" style="stop-color:#06994e;stop-opacity:1"/></linearGradient><linearGradient id="_Linear12" x1="0" y1="0" x2="1" y2="0" gradientUnits="userSpaceOnUse" gradientTransform="matrix(48.675,0,0,-48.675,531.431,491.774)"><stop offset="0" style="stop-color:#067b3e;stop-opacity:1"/><stop offset="1" style="stop-color:#06994e;stop-opacity:1"/></linearGradient><linearGradient id="_Linear13" x1="0" y1="0" x2="1" y2="0" gradientUnits="userSpaceOnUse" gradientTransform="matrix(48.675,0,0,-48.675,531.425,415.146)"><stop offset="0" style="stop-color:#067b3e;stop-opacity:1"/><stop offset="1" style="stop-color:#06994e;stop-opacity:1"/></linearGradient><linearGradient id="_Linear14" x1="0" y1="0" x2="1" y2="0" gradientUnits="userSpaceOnUse" gradientTransform="matrix(9.81681,21.3433,107.846,-1.9428,501.711,432.953)"><stop offset="0" style="stop-color:#06994e;stop-opacity:1"/><stop offset="1" style="stop-color:#067b3e;stop-opacity:1"/></linearGradient><linearGradient id="_Linear15" x1="0" y1="0" x2="1" y2="0" gradientUnits="userSpaceOnUse" gradientTransform="matrix(9.33199,23.4365,102.52,-2.13333,496.519,488.645)"><stop offset="0" style="stop-color:#06994e;stop-opacity:1"/><stop offset="1" style="stop-color:#067b3e;stop-opacity:1"/></linearGradient><linearGradient id="_Linear16" x1="0" y1="0" x2="1" y2="0" gradientUnits="userSpaceOnUse" gradientTransform="matrix(6.59908,37.1393,72.4967,-3.38064,475.009,555.56)"><stop offset="0" style="stop-color:#06994e;stop-opacity:1"/><stop offset="1" style="stop-color:#067b3e;stop-opacity:1"/></linearGradient><linearGradient id="_Linear17" x1="0" y1="0" x2="1" y2="0" gradientUnits="userSpaceOnUse" gradientTransform="matrix(4.41301,48.4749,48.4808,-4.41248,324.36,637.355)"><stop offset="0" style="stop-color:#06994e;stop-opacity:1"/><stop offset="1" style="stop-color:#067b3e;stop-opacity:1"/></linearGradient><linearGradient id="_Linear18" x1="0" y1="0" x2="1" y2="0" gradientUnits="userSpaceOnUse" gradientTransform="matrix(-26.1859,41.0316,41.0316,26.1859,94.5022,629.076)"><stop offset="0" style="stop-color:#06994e;stop-opacity:1"/><stop offset="1" style="stop-color:#067b3e;stop-opacity:1"/></linearGradient><linearGradient id="_Linear19" x1="0" y1="0" x2="1" y2="0" gradientUnits="userSpaceOnUse" gradientTransform="matrix(-7.44134,48.1032,48.1032,7.44134,54.0459,617.41)"><stop offset="0" style="stop-color:#06994e;stop-opacity:1"/><stop offset="1" style="stop-color:#067b3e;stop-opacity:1"/></linearGradient><linearGradient id="_Linear20" x1="0" y1="0" x2="1" y2="0" gradientUnits="userSpaceOnUse" gradientTransform="matrix(24.4563,42.0937,42.0937,-24.4563,465.333,638.892)"><stop offset="0" style="stop-color:#067b3e;stop-opacity:1"/><stop offset="1" style="stop-color:#06994e;stop-opacity:1"/></linearGradient><linearGradient id="_Linear21" x1="0" y1="0" x2="1" y2="0" gradientUnits="userSpaceOnUse" gradientTransform="matrix(7.45625,48.1,48.1,-7.45625,414.386,674.038)"><stop offset="0" style="stop-color:#067b3e;stop-opacity:1"/><stop offset="1" style="stop-color:#06994e;stop-opacity:1"/></linearGradient><linearGradient id="_Linear22" x1="0" y1="0" x2="1" y2="0" gradientUnits="userSpaceOnUse" gradientTransform="matrix(1.36249,48.65,48.65,-1.36249,331.303,697.196)"><stop offset="0" style="stop-color:#067b3e;stop-opacity:1"/><stop offset="1" style="stop-color:#06994e;stop-opacity:1"/></linearGradient><linearGradient id="_Linear23" x1="0" y1="0" x2="1" y2="0" gradientUnits="userSpaceOnUse" gradientTransform="matrix(-2.70002,48.6062,48.6062,2.70002,295.404,698.976)"><stop offset="0" style="stop-color:#067b3e;stop-opacity:1"/><stop offset="1" style="stop-color:#06994e;stop-opacity:1"/></linearGradient><linearGradient id="_Linear24" x1="0" y1="0" x2="1" y2="0" gradientUnits="userSpaceOnUse" gradientTransform="matrix(4.21956,49.4534,46.3556,-4.50155,72.9716,724.221)"><stop offset="0" style="stop-color:#06994e;stop-opacity:1"/><stop offset="1" style="stop-color:#067b3e;stop-opacity:1"/></linearGradient><linearGradient id="_Linear25" x1="0" y1="0" x2="1" y2="0" gradientUnits="userSpaceOnUse" gradientTransform="matrix(4.219,49.4534,46.3494,-4.50155,125.185,721.441)"><stop offset="0" style="stop-color:#06994e;stop-opacity:1"/><stop offset="1" style="stop-color:#067b3e;stop-opacity:1"/></linearGradient><linearGradient id="_Linear26" x1="0" y1="0" x2="1" y2="0" gradientUnits="userSpaceOnUse" gradientTransform="matrix(268.894,0,0,-268.894,6.25,643.031)"><stop offset="0" style="stop-color:#067b3e;stop-opacity:1"/><stop offset="1" style="stop-color:#06994e;stop-opacity:1"/></linearGradient><linearGradient id="_Linear27" x1="0" y1="0" x2="1" y2="-0.00866336" gradientUnits="userSpaceOnUse" gradientTransform="matrix(0.779835,-34.6444,60.2093,0.448716,150.949,812.093)"><stop offset="0" style="stop-color:#06994e;stop-opacity:1"/><stop offset="1" style="stop-color:#067b3e;stop-opacity:1"/></linearGradient><linearGradient id="_Linear28" x1="0" y1="0" x2="1" y2="0" gradientUnits="userSpaceOnUse" gradientTransform="matrix(0.553126,-42.7056,42.7056,0.553126,96.5919,831.63)"><stop offset="0" style="stop-color:#06994e;stop-opacity:1"/><stop offset="1" style="stop-color:#067b3e;stop-opacity:1"/></linearGradient><linearGradient id="_Linear29" x1="0" y1="0" x2="1" y2="0" gradientUnits="userSpaceOnUse" gradientTransform="matrix(42.3563,0,0,-42.3563,195.077,742.172)"><stop offset="0" style="stop-color:#067b3e;stop-opacity:1"/><stop offset="1" style="stop-color:#06994e;stop-opacity:1"/></linearGradient><linearGradient id="_Linear30" x1="0" y1="0" x2="1" y2="0" gradientUnits="userSpaceOnUse" gradientTransform="matrix(47.6238,-10.0008,-10.0008,-47.6238,249.68,659.15)"><stop offset="0" style="stop-color:#067b3e;stop-opacity:1"/><stop offset="1" style="stop-color:#06994e;stop-opacity:1"/></linearGradient><linearGradient id="_Linear31" x1="0" y1="0" x2="1" y2="0" gradientUnits="userSpaceOnUse" gradientTransform="matrix(47.9036,-9.94473,-9.94473,-47.9036,263.261,599.957)"><stop offset="0" style="stop-color:#067b3e;stop-opacity:1"/><stop offset="1" style="stop-color:#06994e;stop-opacity:1"/></linearGradient><linearGradient id="_Linear32" x1="0" y1="0" x2="1" y2="0" gradientUnits="userSpaceOnUse" gradientTransform="matrix(8.47753,27.8823,93.133,-2.53802,204.496,650.328)"><stop offset="0" style="stop-color:#06994e;stop-opacity:1"/><stop offset="1" style="stop-color:#067b3e;stop-opacity:1"/></linearGradient><linearGradient id="_Linear33" x1="0" y1="0" x2="1" y2="0" gradientUnits="userSpaceOnUse" gradientTransform="matrix(9.01172,25.0184,99.0016,-2.27733,227.8,579.552)"><stop offset="0" style="stop-color:#06994e;stop-opacity:1"/><stop offset="1" style="stop-color:#067b3e;stop-opacity:1"/></linearGradient><linearGradient id="_Linear34" x1="0" y1="0" x2="1" y2="0" gradientUnits="userSpaceOnUse" gradientTransform="matrix(4.57161e-14,-746.6,-746.6,-4.57161e-14,379.606,559.1)"><stop offset="0" style="stop-color:#069249;stop-opacity:1"/><stop offset="1" style="stop-color:#86df49;stop-opacity:1"/></linearGradient><linearGradient id="_Linear35" x1="0" y1="0" x2="1" y2="0" gradientUnits="userSpaceOnUse" gradientTransform="matrix(-171.706,-554.681,-554.681,171.706,362.337,277.863)"><stop offset="0" style="stop-color:#069249;stop-opacity:1"/><stop offset="1" style="stop-color:#86df49;stop-opacity:1"/></linearGradient><linearGradient id="_Linear36" x1="0" y1="0" x2="1" y2="0" gradientUnits="userSpaceOnUse" gradientTransform="matrix(3.85924e-14,630.261,-630.261,3.85924e-14,1809.87,462.753)"><stop offset="0" style="stop-color:#6d4c41;stop-opacity:1"/><stop offset="1" style="stop-color:#4e342e;stop-opacity:1"/></linearGradient><linearGradient id="_Linear37" x1="0" y1="0" x2="1" y2="0" gradientUnits="userSpaceOnUse" gradientTransform="matrix(-90.8232,195.503,-546.021,-32.5193,1994.53,518.268)"><stop offset="0" style="stop-color:#6d4c41;stop-opacity:1"/><stop offset="1" style="stop-color:#4e342e;stop-opacity:1"/></linearGradient><linearGradient id="_Linear38" x1="0" y1="0" x2="1" y2="0" gradientUnits="userSpaceOnUse" gradientTransform="matrix(5.39532e-14,881.122,-881.122,5.39532e-14,1863.99,355.065)"><stop offset="0" style="stop-color:#775645;stop-opacity:1"/><stop offset="1" style="stop-color:#4e342e;stop-opacity:1"/></linearGradient><linearGradient id="_Linear39" x1="0" y1="0" x2="1" y2="0" gradientUnits="userSpaceOnUse" gradientTransform="matrix(-5.03314,500.543,-500.543,-5.03314,1731.09,475.657)"><stop offset="0" style="stop-color:#5e4138;stop-opacity:1"/><stop offset="1" style="stop-color:#4e342e;stop-opacity:1"/></linearGradient><linearGradient id="_Linear40" x1="0" y1="0" x2="1" y2="0" gradientUnits="userSpaceOnUse" gradientTransform="matrix(64.4717,218.063,732.564,193.1,1527.87,509.591)"><stop offset="0" style="stop-color:#6d4c41;stop-opacity:1"/><stop offset="1" style="stop-color:#4e342e;stop-opacity:1"/></linearGradient><linearGradient id="_Linear41" x1="0" y1="0" x2="1" y2="0" gradientUnits="userSpaceOnUse" gradientTransform="matrix(-12.1652,72.5902,67.6858,-5.74286,1580.15,499.318)"><stop offset="0" style="stop-color:#067b3e;stop-opacity:1"/><stop offset="1" style="stop-color:#06994e;stop-opacity:1"/></linearGradient><linearGradient id="_Linear42" x1="0" y1="0" x2="1" y2="0" gradientUnits="userSpaceOnUse" gradientTransform="matrix(-84.1767,11.4813,-87.4072,69.7075,1425.29,590.779)"><stop offset="0" style="stop-color:#067b3e;stop-opacity:1"/><stop offset="1" style="stop-color:#06994e;stop-opacity:1"/></linearGradient><linearGradient id="_Linear43" x1="0" y1="0" x2="1" y2="0" gradientUnits="userSpaceOnUse" gradientTransform="matrix(-15.8447,-70.6781,-70.6796,15.8423,1416.8,549.104)"><stop offset="0" style="stop-color:#067b3e;stop-opacity:1"/><stop offset="1" style="stop-color:#06994e;stop-opacity:1"/></linearGradient><linearGradient id="_Linear44" x1="0" y1="0" x2="1" y2="0" gradientUnits="userSpaceOnUse" gradientTransform="matrix(310.057,413.064,1864.04,-68.7076,1368.67,533.044)"><stop offset="0" style="stop-color:#6d4c41;stop-opacity:1"/><stop offset="1" style="stop-color:#46302b;stop-opacity:1"/></linearGradient><linearGradient id="_Linear45" x1="0" y1="0" x2="1" y2="0" gradientUnits="userSpaceOnUse" gradientTransform="matrix(13.9897,-18.1539,-18.1539,-13.9897,1247.5,342.893)"><stop offset="0" style="stop-color:#067b3e;stop-opacity:1"/><stop offset="1" style="stop-color:#06994e;stop-opacity:1"/></linearGradient><linearGradient id="_Linear46" x1="0" y1="0" x2="1" y2="0" gradientUnits="userSpaceOnUse" gradientTransform="matrix(-12.3392,-18.2213,-18.2213,12.3392,1210.7,333.694)"><stop offset="0" style="stop-color:#067b3e;stop-opacity:1"/><stop offset="1" style="stop-color:#06994e;stop-opacity:1"/></linearGradient><linearGradient id="_Linear47" x1="0" y1="0" x2="1" y2="0" gradientUnits="userSpaceOnUse" gradientTransform="matrix(17.2894,-15.0637,-15.0637,-17.2894,1245.77,435.502)"><stop offset="0" style="stop-color:#067b3e;stop-opacity:1"/><stop offset="1" style="stop-color:#06994e;stop-opacity:1"/></linearGradient><linearGradient id="_Linear48" x1="0" y1="0" x2="1" y2="0" gradientUnits="userSpaceOnUse" gradientTransform="matrix(-12.8607,-17.4241,-17.4241,12.8607,1216.69,407.804)"><stop offset="0" style="stop-color:#067b3e;stop-opacity:1"/><stop offset="1" style="stop-color:#06994e;stop-opacity:1"/></linearGradient><linearGradient id="_Linear49" x1="0" y1="0" x2="1" y2="0" gradientUnits="userSpaceOnUse" gradientTransform="matrix(1.90674e-14,-311.394,-311.394,-1.90674e-14,1237.4,565.885)"><stop offset="0" style="stop-color:#067b3e;stop-opacity:1"/><stop offset="1" style="stop-color:#06994e;stop-opacity:1"/></linearGradient><linearGradient id="_Linear50" x1="0" y1="0" x2="1" y2="0" gradientUnits="userSpaceOnUse" gradientTransform="matrix(-18.0289,-14.1703,14.1703,-18.0289,1469.25,422.605)"><stop offset="0" style="stop-color:#067b3e;stop-opacity:1"/><stop offset="1" style="stop-color:#06994e;stop-opacity:1"/></linearGradient><linearGradient id="_Linear51" x1="0" y1="0" x2="1" y2="0" gradientUnits="userSpaceOnUse" gradientTransform="matrix(11.9633,-18.052,18.052,11.9633,1496.89,393.472)"><stop offset="0" style="stop-color:#067b3e;stop-opacity:1"/><stop offset="1" style="stop-color:#06994e;stop-opacity:1"/></linearGradient><linearGradient id="_Linear52" x1="0" y1="0" x2="1" y2="0" gradientUnits="userSpaceOnUse" gradientTransform="matrix(-15.7434,-310.996,310.996,-15.7434,1484.2,552.398)"><stop offset="0" style="stop-color:#067b3e;stop-opacity:1"/><stop offset="1" style="stop-color:#06994e;stop-opacity:1"/></linearGradient><linearGradient id="_Linear53" x1="0" y1="0" x2="1" y2="0" gradientUnits="userSpaceOnUse" gradientTransform="matrix(-58.2713,-550.938,550.938,-58.2713,1405.03,408.839)"><stop offset="0" style="stop-color:#069249;stop-opacity:1"/><stop offset="1" style="stop-color:#86df49;stop-opacity:1"/></linearGradient><linearGradient id="_Linear54" x1="0" y1="0" x2="1" y2="0" gradientUnits="userSpaceOnUse" gradientTransform="matrix(-35.3717,-65.09,-48.6289,47.3452,1839.81,636.097)"><stop offset="0" style="stop-color:#067b3e;stop-opacity:1"/><stop offset="1" style="stop-color:#06994e;stop-opacity:1"/></linearGradient><linearGradient id="_Linear55" x1="0" y1="0" x2="1" y2="0" gradientUnits="userSpaceOnUse" gradientTransform="matrix(-8.04438,-72.0044,-72.0044,8.04438,1926.38,556.336)"><stop offset="0" style="stop-color:#067b3e;stop-opacity:1"/><stop offset="1" style="stop-color:#06994e;stop-opacity:1"/></linearGradient><linearGradient id="_Linear56" x1="0" y1="0" x2="1" y2="0" gradientUnits="userSpaceOnUse" gradientTransform="matrix(43.5144,372.607,-372.607,43.5144,1673.38,-177.326)"><stop offset="0" style="stop-color:#86df49;stop-opacity:1"/><stop offset="1" style="stop-color:#069249;stop-opacity:1"/></linearGradient><linearGradient id="_Linear57" x1="0" y1="0" x2="1" y2="0" gradientUnits="userSpaceOnUse" gradientTransform="matrix(41.2584,24.7192,24.7192,-41.2584,1541.88,1028.6)"><stop offset="0" style="stop-color:#2e914f;stop-opacity:1"/><stop offset="1" style="stop-color:#00793e;stop-opacity:1"/></linearGradient><linearGradient id="_Linear58" x1="0" y1="0" x2="1" y2="0" gradientUnits="userSpaceOnUse" gradientTransform="matrix(11.2109,136.772,-136.772,11.2109,1571.93,971.598)"><stop offset="0" style="stop-color:#2e914f;stop-opacity:1"/><stop offset="1" style="stop-color:#00793e;stop-opacity:1"/></linearGradient><linearGradient id="_Linear59" x1="0" y1="0" x2="1" y2="0" gradientUnits="userSpaceOnUse" gradientTransform="matrix(12.0985,76.6829,76.6829,-12.0985,1564.29,909.407)"><stop offset="0" style="stop-color:#eee95d;stop-opacity:1"/><stop offset="1" style="stop-color:#d6ce00;stop-opacity:1"/></linearGradient><linearGradient id="_Linear60" x1="0" y1="0" x2="1" y2="0" gradientUnits="userSpaceOnUse" gradientTransform="matrix(4.90084,40.4773,40.4773,-4.90084,1563.15,923.263)"><stop offset="0" style="stop-color:#fdc166;stop-opacity:1"/><stop offset="1" style="stop-color:#e98c00;stop-opacity:1"/></linearGradient><linearGradient id="_Linear61" x1="0" y1="0" x2="1" y2="0" gradientUnits="userSpaceOnUse" gradientTransform="matrix(-42.1028,35.3823,-35.3823,-42.1028,1625.87,1002.02)"><stop offset="0" style="stop-color:#2e914f;stop-opacity:1"/><stop offset="1" style="stop-color:#00793e;stop-opacity:1"/></linearGradient><linearGradient id="_Linear62" x1="0" y1="0" x2="1" y2="0" gradientUnits="userSpaceOnUse" gradientTransform="matrix(1.91758e-14,-313.164,-333.114,-2.03974e-14,1670.14,1356.79)"><stop offset="0" style="stop-color:#069249;stop-opacity:1"/><stop offset="1" style="stop-color:#86df49;stop-opacity:1"/></linearGradient><linearGradient id="_Linear63" x1="0" y1="0" x2="1" y2="0" gradientUnits="userSpaceOnUse" gradientTransform="matrix(1.5912e-14,-259.863,-44.8662,-2.74726e-15,1394.42,1252.08)"><stop offset="0" style="stop-color:#007050;stop-opacity:1"/><stop offset="1" style="stop-color:#3d9e41;stop-opacity:1"/></linearGradient><linearGradient id="_Linear64" x1="0" y1="0" x2="1" y2="0" gradientUnits="userSpaceOnUse" gradientTransform="matrix(4.11027e-15,-38.33,-67.1258,-2.34703e-15,1393.32,985.615)"><stop offset="0" style="stop-color:#067659;stop-opacity:1"/><stop offset="1" style="stop-color:#43af48;stop-opacity:1"/></linearGradient><linearGradient id="_Linear65" x1="0" y1="0" x2="1" y2="0" gradientUnits="userSpaceOnUse" gradientTransform="matrix(7.41143e-15,-107.282,-121.038,-6.56913e-15,1308.41,1069.45)"><stop offset="0" style="stop-color:#067659;stop-opacity:1"/><stop offset="1" style="stop-color:#43af48;stop-opacity:1"/></linearGradient><linearGradient id="_Linear66" x1="0" y1="0" x2="1" y2="0" gradientUnits="userSpaceOnUse" gradientTransform="matrix(6.37465e-15,-99.7111,-104.106,-6.10554e-15,1474.73,1065.3)"><stop offset="0" style="stop-color:#067659;stop-opacity:1"/><stop offset="1" style="stop-color:#43af48;stop-opacity:1"/></linearGradient><linearGradient id="_Linear67" x1="0" y1="0" x2="1" y2="0" gradientUnits="userSpaceOnUse" gradientTransform="matrix(5.70502e-15,-188.869,-93.1701,-1.15649e-14,1380.18,1151.04)"><stop offset="0" style="stop-color:#067659;stop-opacity:1"/><stop offset="1" style="stop-color:#43af48;stop-opacity:1"/></linearGradient><linearGradient id="_Linear68" x1="0" y1="0" x2="1" y2="0" gradientUnits="userSpaceOnUse" gradientTransform="matrix(2.41569e-14,-394.513,-394.513,-2.41569e-14,772.25,1396.71)"><stop offset="0" style="stop-color:#069249;stop-opacity:1"/><stop offset="1" style="stop-color:#86df49;stop-opacity:1"/></linearGradient><linearGradient id="_Linear69" x1="0" y1="0" x2="1" y2="0" gradientUnits="userSpaceOnUse" gradientTransform="matrix(-41.2584,24.7192,-24.7192,-41.2584,476.967,1187.36)"><stop offset="0" style="stop-color:#2e914f;stop-opacity:1"/><stop offset="1" style="stop-color:#00793e;stop-opacity:1"/></linearGradient><linearGradient id="_Linear70" x1="0" y1="0" x2="1" y2="0" gradientUnits="userSpaceOnUse" gradientTransform="matrix(-10.6376,124,-124,-10.6376,446.347,1134.62)"><stop offset="0" style="stop-color:#2e914f;stop-opacity:1"/><stop offset="1" style="stop-color:#00793e;stop-opacity:1"/></linearGradient><linearGradient id="_Linear71" x1="0" y1="0" x2="1" y2="0" gradientUnits="userSpaceOnUse" gradientTransform="matrix(-12.0985,76.6829,-76.6829,-12.0985,454.561,1068.17)"><stop offset="0" style="stop-color:#eee95d;stop-opacity:1"/><stop offset="1" style="stop-color:#d6ce00;stop-opacity:1"/></linearGradient><linearGradient id="_Linear72" x1="0" y1="0" x2="1" y2="0" gradientUnits="userSpaceOnUse" gradientTransform="matrix(-4.90084,40.4773,-40.4773,-4.90084,455.702,1082.02)"><stop offset="0" style="stop-color:#fdc166;stop-opacity:1"/><stop offset="1" style="stop-color:#e98c00;stop-opacity:1"/></linearGradient><linearGradient id="_Linear73" x1="0" y1="0" x2="1" y2="0" gradientUnits="userSpaceOnUse" gradientTransform="matrix(42.3239,32.2462,-32.2462,42.3239,391.99,1160.65)"><stop offset="0" style="stop-color:#2e914f;stop-opacity:1"/><stop offset="1" style="stop-color:#00793e;stop-opacity:1"/></linearGradient><linearGradient id="_Linear74" x1="0" y1="0" x2="1" y2="0" gradientUnits="userSpaceOnUse" gradientTransform="matrix(11.7285,-127.362,-127.362,-11.7285,1880.58,1440.16)"><stop offset="0" style="stop-color:#069249;stop-opacity:1"/><stop offset="1" style="stop-color:#86df49;stop-opacity:1"/></linearGradient><linearGradient id="_Linear75" x1="0" y1="0" x2="1" y2="0" gradientUnits="userSpaceOnUse" gradientTransform="matrix(2.23871e-14,-323.181,-365.609,-1.97891e-14,332.058,1450)"><stop offset="0" style="stop-color:#069249;stop-opacity:1"/><stop offset="0.53" style="stop-color:#63ca49;stop-opacity:1"/><stop offset="1" style="stop-color:#86df49;stop-opacity:1"/></linearGradient><linearGradient id="_Linear76" x1="0" y1="0" x2="1" y2="0" gradientUnits="userSpaceOnUse" gradientTransform="matrix(1.88672e-14,-308.125,-308.125,-1.88672e-14,1218.14,1387.5)"><stop offset="0" style="stop-color:#069249;stop-opacity:1"/><stop offset="0.53" style="stop-color:#63ca49;stop-opacity:1"/><stop offset="1" style="stop-color:#86df49;stop-opacity:1"/></linearGradient><linearGradient id="_Linear77" x1="0" y1="0" x2="1" y2="0" gradientUnits="userSpaceOnUse" gradientTransform="matrix(1.06119e-14,-173.306,-173.306,-1.06119e-14,1000,1493.75)"><stop offset="0" style="stop-color:#069249;stop-opacity:1"/><stop offset="1" style="stop-color:#86df49;stop-opacity:1"/></linearGradient><radialGradient id="_Radial78" cx="0" cy="0" r="1" gradientUnits="userSpaceOnUse" gradientTransform="matrix(1384.33,0,0,398.05,1000,1686.46)"><stop offset="0" style="stop-color:#8cc63f;stop-opacity:1"/><stop offset="0.45" style="stop-color:#79c242;stop-opacity:1"/><stop offset="1" style="stop-color:#4bb948;stop-opacity:1"/></radialGradient><linearGradient id="_Linear79" x1="0" y1="0" x2="1" y2="0" gradientUnits="userSpaceOnUse" gradientTransform="matrix(-19.4894,-383.144,-119.735,21.3365,1866.27,1396.53)"><stop offset="0" style="stop-color:#00793e;stop-opacity:1"/><stop offset="1" style="stop-color:#ace84f;stop-opacity:1"/></linearGradient><linearGradient id="_Linear80" x1="0" y1="0" x2="1" y2="0" gradientUnits="userSpaceOnUse" gradientTransform="matrix(3.05994e-14,-499.726,-252.856,16.3807,1724.44,1461.6)"><stop offset="0" style="stop-color:#00793e;stop-opacity:1"/><stop offset="1" style="stop-color:#ace84f;stop-opacity:1"/></linearGradient><linearGradient id="_Linear81" x1="0" y1="0" x2="1" y2="0" gradientUnits="userSpaceOnUse" gradientTransform="matrix(100.677,344.43,-344.43,100.677,1683.97,1010.53)"><stop offset="0" style="stop-color:#579538;stop-opacity:1"/><stop offset="1" style="stop-color:#117947;stop-opacity:1"/></linearGradient><linearGradient id="_Linear82" x1="0" y1="0" x2="1" y2="0" gradientUnits="userSpaceOnUse" gradientTransform="matrix(2.18213e-14,-356.369,-356.369,-2.18213e-14,1645.65,1493.75)"><stop offset="0" style="stop-color:#00793e;stop-opacity:1"/><stop offset="1" style="stop-color:#ace84f;stop-opacity:1"/></linearGradient><linearGradient id="_Linear83" x1="0" y1="0" x2="1" y2="0.264905" gradientUnits="userSpaceOnUse" gradientTransform="matrix(170.345,171.88,-582.775,50.2406,1580.53,1192.06)"><stop offset="0" style="stop-color:#579538;stop-opacity:1"/><stop offset="1" style="stop-color:#117947;stop-opacity:1"/></linearGradient><linearGradient id="_Linear84" x1="0" y1="0" x2="1" y2="0" gradientUnits="userSpaceOnUse" gradientTransform="matrix(1.40739e-14,-229.844,-229.844,-1.40739e-14,1621.9,1779.03)"><stop offset="0" style="stop-color:#00793e;stop-opacity:1"/><stop offset="1" style="stop-color:#3d9e41;stop-opacity:1"/></linearGradient><linearGradient id="_Linear85" x1="0" y1="0" x2="1" y2="0" gradientUnits="userSpaceOnUse" gradientTransform="matrix(1.27451e-14,-208.144,-208.144,-1.27451e-14,390.766,1872.87)"><stop offset="0" style="stop-color:#00793e;stop-opacity:1"/><stop offset="1" style="stop-color:#3d9e41;stop-opacity:1"/></linearGradient><linearGradient id="_Linear86" x1="0" y1="0" x2="1" y2="0" gradientUnits="userSpaceOnUse" gradientTransform="matrix(2.72675e-15,-44.5312,-44.5312,-2.72675e-15,990.588,1416.15)"><stop offset="0" style="stop-color:#f1f1f1;stop-opacity:1"/><stop offset="1" style="stop-color:#ccc;stop-opacity:1"/></linearGradient><linearGradient id="_Linear87" x1="0" y1="0" x2="1" y2="0" gradientUnits="userSpaceOnUse" gradientTransform="matrix(4.58056e-15,-74.8063,-74.8063,-4.58056e-15,990.931,1379.74)"><stop offset="0" style="stop-color:#e6e6e6;stop-opacity:1"/><stop offset="1" style="stop-color:#fff;stop-opacity:1"/></linearGradient><linearGradient id="_Linear88" x1="0" y1="0" x2="1" y2="0" gradientUnits="userSpaceOnUse" gradientTransform="matrix(10.8825,14.8448,-19.2727,8.38228,981.508,1348.9)"><stop offset="0" style="stop-color:#ef9a9a;stop-opacity:1"/><stop offset="1" style="stop-color:#f44336;stop-opacity:1"/></linearGradient><linearGradient id="_Linear89" x1="0" y1="0" x2="1" y2="0" gradientUnits="userSpaceOnUse" gradientTransform="matrix(20.8272,38.9825,-36.8846,22.0119,933.549,1313.3)"><stop offset="0" style="stop-color:#ef9a9a;stop-opacity:1"/><stop offset="1" style="stop-color:#f44336;stop-opacity:1"/></linearGradient><linearGradient id="_Linear90" x1="0" y1="0" x2="1" y2="0" gradientUnits="userSpaceOnUse" gradientTransform="matrix(24.5727,41.1831,-43.5177,23.2544,1018.65,1310.61)"><stop offset="0" style="stop-color:#ef9a9a;stop-opacity:1"/><stop offset="1" style="stop-color:#f44336;stop-opacity:1"/></linearGradient><linearGradient id="_Linear91" x1="0" y1="0" x2="1" y2="0" gradientUnits="userSpaceOnUse" gradientTransform="matrix(3.74436e-16,-34.7487,-6.115,-2.12775e-15,992.059,1428.63)"><stop offset="0" style="stop-color:#05774b;stop-opacity:1"/><stop offset="0.54" style="stop-color:#0f8a60;stop-opacity:1"/><stop offset="1" style="stop-color:#139168;stop-opacity:1"/></linearGradient><linearGradient id="_Linear92" x1="0" y1="0" x2="1" y2="0" gradientUnits="userSpaceOnUse" gradientTransform="matrix(90.8835,0,0,-90.8835,107.345,1607.15)"><stop offset="0" style="stop-color:#67716c;stop-opacity:1"/><stop offset="1" style="stop-color:#455a64;stop-opacity:1"/></linearGradient><linearGradient id="_Linear93" x1="0" y1="0" x2="1" y2="0" gradientUnits="userSpaceOnUse" gradientTransform="matrix(56.2612,0,0,-56.2612,189.573,1599.94)"><stop offset="0" style="stop-color:#67716c;stop-opacity:1"/><stop offset="1" style="stop-color:#8e939f;stop-opacity:1"/></linearGradient><linearGradient id="_Linear94" x1="0" y1="0" x2="1" y2="0" gradientUnits="userSpaceOnUse" gradientTransform="matrix(85.1246,0,0,-85.1246,132.573,1579.75)"><stop offset="0" style="stop-color:#b0b6c8;stop-opacity:1"/><stop offset="1" style="stop-color:#8e939f;stop-opacity:1"/></linearGradient><linearGradient id="_Linear95" x1="0" y1="0" x2="1" y2="0" gradientUnits="userSpaceOnUse" gradientTransform="matrix(1.94906,17.325,-17.325,1.94906,186.344,1582.21)"><stop offset="0" style="stop-color:#bdc2d1;stop-opacity:1"/><stop offset="1" style="stop-color:#8e939f;stop-opacity:1"/></linearGradient><linearGradient id="_Linear96" x1="0" y1="0" x2="1" y2="0" gradientUnits="userSpaceOnUse" gradientTransform="matrix(-35.6418,-311.915,-298.429,38.2046,247.53,1381.4)"><stop offset="0" style="stop-color:#f1a600;stop-opacity:1"/><stop offset="1" style="stop-color:#fae246;stop-opacity:1"/></linearGradient><linearGradient id="_Linear97" x1="0" y1="0" x2="1" y2="0" gradientUnits="userSpaceOnUse" gradientTransform="matrix(21.3744,341.131,-341.131,21.3744,213.363,1126.34)"><stop offset="0" style="stop-color:#fff;stop-opacity:1"/><stop offset="1" style="stop-color:#e6e6e6;stop-opacity:1"/></linearGradient><linearGradient id="_Linear98" x1="0" y1="0" x2="1" y2="0" gradientUnits="userSpaceOnUse" gradientTransform="matrix(138.659,0,0,-138.659,1077.66,1780.68)"><stop offset="0" style="stop-color:#455a64;stop-opacity:1"/><stop offset="1" style="stop-color:#67716c;stop-opacity:1"/></linearGradient><linearGradient id="_Linear99" x1="0" y1="0" x2="1" y2="0" gradientUnits="userSpaceOnUse" gradientTransform="matrix(-85.8398,-1.05123e-14,-1.05123e-14,85.8398,1090.87,1769.66)"><stop offset="0" style="stop-color:#67716c;stop-opacity:1"/><stop offset="1" style="stop-color:#8e939f;stop-opacity:1"/></linearGradient><linearGradient id="_Linear100" x1="0" y1="0" x2="1" y2="0" gradientUnits="userSpaceOnUse" gradientTransform="matrix(-129.888,-1.59066e-14,-1.59066e-14,129.888,1177.82,1738.85)"><stop offset="0" style="stop-color:#b0b6c8;stop-opacity:1"/><stop offset="1" style="stop-color:#8e939f;stop-opacity:1"/></linearGradient><linearGradient id="_Linear101" x1="0" y1="0" x2="1" y2="-0.322024" gradientUnits="userSpaceOnUse" gradientTransform="matrix(1.74204,30.9991,-15.4848,3.4874,1099.86,1740.08)"><stop offset="0" style="stop-color:#bdc2d1;stop-opacity:1"/><stop offset="1" style="stop-color:#8e939f;stop-opacity:1"/></linearGradient></defs></svg>