<?xml version="1.0" encoding="iso-8859-1"?>
<!-- Generator: Adobe Illustrator 22.0.1, SVG Export Plug-In . SVG Version: 6.00 Build 0)  -->
<svg version="1.1" xmlns="http://www.w3.org/2000/svg" xmlns:xlink="http://www.w3.org/1999/xlink" x="0px" y="0px"
	 viewBox="0 0 512 512" style="enable-background:new 0 0 512 512;" xml:space="preserve">
<g id="BULINE">
	<circle id="XMLID_2087_" style="fill:#4B4C9B;" cx="256" cy="256" r="256"/>
</g>
<g id="Icons">
	<g id="XMLID_1478_">
		<g id="XMLID_1506_">
			<path id="XMLID_1512_" style="fill:#7CCAFD;" d="M411.614,176.208c0,0.463,0,0.935-0.008,1.398
				c-0.136,14.761-2.324,29.042-6.302,42.541c-2.692,9.138-6.206,17.924-10.456,26.271c-5.975,11.765-13.403,22.66-22.053,32.453
				c-14.976,16.949-33.603,30.608-54.65,39.729c-18.898,8.203-39.745,12.74-61.655,12.74c-14.841,0-29.194-2.085-42.78-5.975
				c-28.819-8.251-54.202-24.633-73.524-46.495c-23.874-27.029-38.467-62.445-38.819-101.264v-1.398
				c0-38.483,14.002-73.692,37.213-100.809c0.064-0.072,0.128-0.152,0.192-0.224c28.451-33.116,70.632-54.091,117.718-54.091
				c30.592,0,59.123,8.858,83.149,24.146c12.956,8.235,24.601,18.347,34.569,29.945
				C397.525,102.325,411.614,137.621,411.614,176.208z"/>
			<path id="XMLID_1511_" style="fill:#41C2E5;" d="M297.93,325.74c-13.187,3.65-27.085,5.599-41.439,5.599
				c-14.841,0-29.194-2.085-42.78-5.975c-28.818-8.251-54.202-24.633-73.524-46.495c-23.874-27.029-38.467-62.445-38.819-101.264
				v-1.398c0-38.483,14.002-73.692,37.213-100.809c0.064-0.072,0.128-0.152,0.192-0.224c28.451-33.116,70.632-54.091,117.718-54.091
				c14.345,0,28.243,1.949,41.423,5.599c-30.081,8.315-56.503,25.472-76.28,48.491c-0.064,0.072-0.128,0.152-0.192,0.224
				c-20.136,23.523-33.339,53.14-36.486,85.697c-0.479,4.976-0.727,10.016-0.727,15.112v1.398
				c0.176,19.274,3.858,37.708,10.448,54.682c6.677,17.237,16.35,32.972,28.371,46.582c19.321,21.861,44.705,38.244,73.524,46.495
				C297.019,325.493,297.475,325.62,297.93,325.74z"/>
			<path id="XMLID_1510_" style="fill:#38C689;" d="M411.614,176.208c0,0.463,0,0.935-0.008,1.398
				c-0.136,14.761-2.324,29.042-6.302,42.541c-17.476,0.224-37.325,5.32-37.325,5.32c-53.907,10.775-60.896-57.956-60.896-57.956
				c-50.121-42.389,0.998-65.433,0.998-65.433c-5.471-36.494,12.516-51.207,31.558-56.846c12.956,8.235,24.601,18.347,34.569,29.945
				C397.525,102.325,411.614,137.621,411.614,176.208z"/>
			<path id="XMLID_1509_" style="fill:#38C689;" d="M394.849,246.418c-5.975,11.765-13.403,22.66-22.053,32.453
				c-14.976,16.949-33.603,30.608-54.65,39.729C309.16,250.483,370.727,238.806,394.849,246.418z"/>
			<path id="XMLID_1508_" style="fill:#38C689;" d="M213.711,325.365c-28.819-8.251-54.202-24.633-73.524-46.495
				c-23.874-27.029-38.467-62.445-38.819-101.264v-1.398c0-38.483,14.002-73.692,37.213-100.809
				c13.579,3.355,30.041,13.97,29.33,45.848c0,0,28.747,6.63,11.981,36.854c0,0,63.652,32.597,11.973,76.679
				c0,0-25.152,12.508-7.189,32.748C184.677,267.528,233.368,290.62,213.711,325.365z"/>
			<path id="XMLID_1507_" style="fill:#34B279;" d="M213.711,325.365c-28.818-8.251-54.202-24.633-73.524-46.495
				c-23.874-27.029-38.467-62.445-38.819-101.264v-1.398c0-38.483,14.002-73.692,37.213-100.809
				c13.579,3.355,30.041,13.97,29.33,45.848c0,0,28.747,6.63,11.981,36.854c0,0,2.029,1.038,5.064,2.995
				c-0.479,4.976-0.727,10.016-0.727,15.112v1.398c0.176,19.274,3.858,37.708,10.448,54.682c-0.895,0.831-1.837,1.661-2.812,2.492
				c0,0-25.152,12.508-7.189,32.748C184.677,267.528,233.368,290.62,213.711,325.365z"/>
		</g>
		<g id="XMLID_1479_">
			<path id="XMLID_1505_" style="fill:#FFFFFF;" d="M444.59,254.48c-16.094-41.713-62.956-62.48-104.668-46.386
				c-9.963,3.844-18.729,9.445-26.084,16.312c-11.519,10.755-26.857,16.473-42.616,16.473h-29.461
				c-15.76,0-31.097-5.717-42.616-16.473c-7.354-6.867-16.12-12.468-26.084-16.312C131.348,192,84.487,212.768,68.393,254.48
				c-16.094,41.712-39.366,202.714,2.347,218.808c20.591,7.945,53.165-20.907,82.812-57.18
				c14.705-17.992,36.804-28.313,60.042-28.313h85.797c23.237,0,45.336,10.321,60.042,28.313
				c29.647,36.273,62.221,65.125,82.812,57.18C483.956,457.194,460.684,296.193,444.59,254.48z"/>
			<circle id="XMLID_1504_" style="fill:#BABABA;" cx="142.818" cy="304.254" r="74.222"/>
			<circle id="XMLID_1503_" style="fill:#BABABA;" cx="370.166" cy="304.254" r="74.222"/>
			<circle id="XMLID_1502_" style="fill:#BABABA;" cx="256.491" cy="282.104" r="24.841"/>
			<circle id="XMLID_1501_" style="fill:#FFFFFF;" cx="256.491" cy="282.104" r="16.343"/>
			<path id="XMLID_1500_" style="fill:#4F4F74;" d="M188.185,284.97h-14.219c-5.067,0-9.174-4.107-9.174-9.174v-14.219
				c0-5.067-4.107-9.174-9.174-9.174h-25.602c-5.067,0-9.174,4.107-9.174,9.174v14.219c0,5.067-4.107,9.174-9.174,9.174H97.45
				c-5.067,0-9.174,4.107-9.174,9.174v25.602c0,5.067,4.107,9.174,9.174,9.174h14.219c5.067,0,9.174,4.107,9.174,9.174v14.219
				c0,5.067,4.107,9.174,9.174,9.174h25.602c5.067,0,9.174-4.107,9.174-9.174v-14.219c0-5.067,4.107-9.174,9.174-9.174h14.219
				c5.067,0,9.174-4.107,9.174-9.174v-25.602C197.359,289.077,193.252,284.97,188.185,284.97z"/>
			<path id="XMLID_1499_" style="fill:#666691;" d="M171.272,293.163h-8.918c-3.178,0-5.754-2.576-5.754-5.754v-8.918
				c0-3.178-2.576-5.754-5.754-5.754h-16.058c-3.178,0-5.754,2.576-5.754,5.754v8.918c0,3.178-2.576,5.754-5.754,5.754h-8.918
				c-3.178,0-5.754,2.576-5.754,5.754v16.058c0,3.178,2.576,5.754,5.754,5.754h8.918c3.178,0,5.754,2.576,5.754,5.754v8.918
				c0,3.178,2.576,5.754,5.754,5.754h16.058c3.178,0,5.754-2.576,5.754-5.754v-8.918c0-3.178,2.576-5.754,5.754-5.754h8.918
				c3.178,0,5.754-2.576,5.754-5.754v-16.058C177.026,295.739,174.45,293.163,171.272,293.163z"/>
			<circle id="XMLID_1498_" style="fill:#F8D572;" cx="369.653" cy="257.986" r="23.228"/>
			<circle id="XMLID_1497_" style="fill:#F9BD38;" cx="369.653" cy="257.986" r="19.263"/>
			<path id="XMLID_1496_" style="fill:#E2C06D;" d="M359.928,257.986c0,8.017,4.059,15.084,10.237,19.257
				c0.635,0.431,1.292,0.83,1.972,1.195c1.348,0.728,2.776,1.326,4.269,1.776c-2.136,0.652-4.405,1-6.753,1
				c-12.829,0-23.228-10.399-23.228-23.228c0-0.201,0.003-0.399,0.009-0.601c0.003-0.13,0.006-0.263,0.014-0.394
				c0-0.02,0-0.04,0.003-0.062c0.003-0.088,0.008-0.178,0.014-0.266c0.683-12.215,10.807-21.905,23.189-21.905
				c2.348,0,4.617,0.348,6.753,1c-2.243,0.677-4.343,1.688-6.24,2.972C363.987,242.901,359.928,249.969,359.928,257.986z"/>
			<path id="XMLID_1495_" style="fill:#DDA636;" d="M370.166,277.243c-0.17,0.003-0.343,0.006-0.513,0.006
				c-10.637,0-19.263-8.623-19.263-19.263c0-10.637,8.626-19.263,19.263-19.263c0.17,0,0.343,0.003,0.513,0.006
				c-6.178,4.173-10.237,11.24-10.237,19.257C359.928,266.002,363.987,273.07,370.166,277.243z"/>
			<g id="XMLID_1490_">
				<circle id="XMLID_1494_" style="fill:#3588CD;" cx="329.949" cy="303.404" r="23.228"/>
				<path id="XMLID_1493_" style="fill:#3385BC;" d="M320.225,303.403c0,8.017,4.059,15.084,10.237,19.257
					c0.635,0.431,1.292,0.83,1.972,1.195c1.348,0.728,2.776,1.326,4.269,1.776c-2.136,0.652-4.405,1-6.753,1
					c-12.829,0-23.228-10.399-23.228-23.228c0-0.201,0.003-0.399,0.009-0.601c0.003-0.13,0.006-0.263,0.014-0.394
					c0-0.02,0-0.04,0.003-0.062c0.003-0.088,0.009-0.178,0.014-0.266c0.683-12.215,10.807-21.905,23.189-21.905
					c2.348,0,4.617,0.348,6.753,1c-2.243,0.677-4.343,1.688-6.24,2.972C324.284,288.319,320.225,295.387,320.225,303.403z"/>
				<circle id="XMLID_1492_" style="fill:#366FCC;" cx="329.949" cy="303.404" r="19.263"/>
				<path id="XMLID_1491_" style="fill:#3268B7;" d="M337.353,321.66c-1.921,0.653-3.983,1.003-6.131,1.003
					c-10.634,0-19.263-8.619-19.263-19.263c0-10.634,8.629-19.263,19.263-19.263c2.148,0,4.21,0.35,6.131,1.003
					c-7.635,2.554-13.132,9.773-13.132,18.26C324.221,311.896,329.718,319.106,337.353,321.66z"/>
			</g>
			<circle id="XMLID_1489_" style="fill:#ED4F4F;" cx="412.144" cy="303.404" r="23.228"/>
			<circle id="XMLID_1488_" style="fill:#DD1B1B;" cx="412.144" cy="303.404" r="19.263"/>
			<path id="XMLID_1487_" style="fill:#CC4A4A;" d="M402.419,303.403c0,8.017,4.059,15.084,10.237,19.257
				c0.635,0.431,1.292,0.83,1.972,1.195c1.348,0.728,2.776,1.326,4.269,1.776c-2.136,0.652-4.405,1-6.753,1
				c-12.829,0-23.228-10.399-23.228-23.228c0-0.201,0.003-0.399,0.008-0.601c0.003-0.13,0.006-0.263,0.014-0.394
				c0-0.02,0-0.04,0.003-0.062c0.003-0.088,0.009-0.178,0.014-0.266c0.683-12.215,10.807-21.905,23.189-21.905
				c2.348,0,4.617,0.348,6.753,1c-2.244,0.677-4.343,1.688-6.241,2.972C406.478,288.319,402.419,295.387,402.419,303.403z"/>
			<path id="XMLID_1486_" style="fill:#BC1B1B;" d="M412.657,322.66c-0.17,0.003-0.343,0.006-0.513,0.006
				c-10.637,0-19.263-8.623-19.263-19.263c0-10.637,8.626-19.263,19.263-19.263c0.17,0,0.343,0.003,0.513,0.006
				c-6.178,4.173-10.237,11.24-10.237,19.257C402.419,311.42,406.478,318.488,412.657,322.66z"/>
			<circle id="XMLID_1485_" style="fill:#03E277;" cx="369.653" cy="344.383" r="23.228"/>
			<circle id="XMLID_1484_" style="fill:#00B764;" cx="369.653" cy="344.383" r="19.263"/>
			<path id="XMLID_1483_" style="fill:#05CC68;" d="M359.928,344.383c0,8.017,4.059,15.084,10.237,19.257
				c0.635,0.431,1.292,0.83,1.972,1.195c1.348,0.728,2.776,1.326,4.269,1.776c-2.136,0.652-4.405,1-6.753,1
				c-12.829,0-23.228-10.399-23.228-23.228c0-0.201,0.003-0.399,0.009-0.601c0.003-0.13,0.006-0.263,0.014-0.394
				c0-0.02,0-0.04,0.003-0.062c0.003-0.088,0.008-0.178,0.014-0.266c0.683-12.215,10.807-21.905,23.189-21.905
				c2.348,0,4.617,0.348,6.753,1c-2.243,0.677-4.343,1.688-6.24,2.972C363.987,329.299,359.928,336.367,359.928,344.383z"/>
			<path id="XMLID_1482_" style="fill:#049E54;" d="M370.166,363.64c-0.17,0.003-0.343,0.006-0.513,0.006
				c-10.637,0-19.263-8.623-19.263-19.263c0-10.637,8.626-19.263,19.263-19.263c0.17,0,0.343,0.003,0.513,0.006
				c-6.178,4.173-10.237,11.24-10.237,19.257C359.928,352.4,363.987,359.468,370.166,363.64z"/>
			<path id="XMLID_1481_" style="fill:#32314B;" d="M247.03,367.612h-30.907c-1.568,0-2.838-1.271-2.838-2.838v-9.502
				c0-1.568,1.271-2.838,2.838-2.838h30.907c1.568,0,2.838,1.271,2.838,2.838v9.502C249.869,366.341,248.598,367.612,247.03,367.612
				z"/>
			<path id="XMLID_1480_" style="fill:#32314B;" d="M299.698,367.612h-30.907c-1.568,0-2.838-1.271-2.838-2.838v-9.502
				c0-1.568,1.271-2.838,2.838-2.838h30.907c1.568,0,2.838,1.271,2.838,2.838v9.502
				C302.536,366.341,301.265,367.612,299.698,367.612z"/>
		</g>
	</g>
</g>
</svg>
